<svg xmlns:inkscape="http://www.inkscape.org/namespaces/inkscape" xmlns:sodipodi="http://sodipodi.sourceforge.net/DTD/sodipodi-0.dtd" xmlns="http://www.w3.org/2000/svg" xmlns:svg="http://www.w3.org/2000/svg" version="1.1" id="svg2" width="666.66669" height="666.66669" viewBox="0 0 666.66669 666.66669" sodipodi:docname="5483080_2844251.eps">
  <defs id="defs6">
    <clipPath clipPathUnits="userSpaceOnUse" id="clipPath102" >
      <path fill='transparent' d="m 2898.25,3070.78 c -1.11,-11.34 -16.61,-129.74 -138.36,-129.74 -127.81,0 -106.4,126.55 -106.4,126.55 l -0.16,0.79 c 12.46,2.56 25.88,3.52 40.1,1.92 v 59.91 l 145.08,81.17 h 5.27 v -139.8 c 0,0 23,2.72 54.47,-0.8 z" id="path100"/>
    </clipPath>
    <radialGradient fx="0" fy="0" cx="0" cy="0" r="1" gradientUnits="userSpaceOnUse" gradientTransform="matrix(129.255,0,0,-129.255,2775.2,3076.21)" spreadMethod="pad" id="radialGradient108">
      <stop style="stop-opacity:1;stop-color:#fabda6" offset="0" id="stop104"/>
      <stop style="stop-opacity:1;stop-color:#f9ad90" offset="1" id="stop106"/>
    </radialGradient>
    <clipPath clipPathUnits="userSpaceOnUse" id="clipPath118">
      <path d="m 2827.79,3478.83 c 20.58,-20.86 36.13,-47.85 43.61,-80.84 13.94,-61.46 0.83,-126.49 -17.01,-185.72 -3.04,-10.14 -6.51,-20.36 -12.77,-28.89 -4.46,-6.08 -10.21,-11.09 -15.91,-16.05 -25.8,-22.47 -51.6,-44.95 -77.34,-67.49 -17.46,-15.27 -124.89,-28 -145.4,-13.35 -79.01,56.5 -94.22,220.18 -78.41,303.87 26.24,138.82 204.67,188.45 303.23,88.47 z" id="path116"/>
    </clipPath>
    <radialGradient fx="0" fy="0" cx="0" cy="0" r="1" gradientUnits="userSpaceOnUse" gradientTransform="matrix(199.211,42.8947,42.8947,-199.211,2700.42,3310.17)" spreadMethod="pad" id="radialGradient124">
      <stop style="stop-opacity:1;stop-color:#fabda6" offset="0" id="stop120"/>
      <stop style="stop-opacity:1;stop-color:#f9ad90" offset="1" id="stop122"/>
    </radialGradient>
    <clipPath clipPathUnits="userSpaceOnUse" id="clipPath160">
      <path d="m 2543.24,1200.98 42.18,-96.19 -129.25,-56.72 -42.34,96.5 z" id="path158"/>
    </clipPath>
    <radialGradient fx="0" fy="0" cx="0" cy="0" r="1" gradientUnits="userSpaceOnUse" gradientTransform="matrix(81.2587,0,0,-81.2587,2499.63,1124.52)" spreadMethod="pad" id="radialGradient166">
      <stop style="stop-opacity:1;stop-color:#fabda6" offset="0" id="stop162"/>
      <stop style="stop-opacity:1;stop-color:#f9ad90" offset="1" id="stop164"/>
    </radialGradient>
    <clipPath clipPathUnits="userSpaceOnUse" id="clipPath178">
      <path d="m 2050.48,1176.23 10.1,-144.5 h -141.09 l -10.1,144.82 z" id="path176"/>
    </clipPath>
    <radialGradient fx="0" fy="0" cx="0" cy="0" r="1" gradientUnits="userSpaceOnUse" gradientTransform="matrix(74.0153,0,0,-74.0153,1984.99,1104.14)" spreadMethod="pad" id="radialGradient184">
      <stop style="stop-opacity:1;stop-color:#fabda6" offset="0" id="stop180"/>
      <stop style="stop-opacity:1;stop-color:#f9ad90" offset="1" id="stop182"/>
    </radialGradient>
    <clipPath clipPathUnits="userSpaceOnUse" id="clipPath204">
      <path d="m 2314.61,2462.53 -2.08,-69.98 h -255.64 c 0,0 25.41,99.86 94.59,99.86 69.18,0 95.86,-36.59 95.86,-36.59 z" id="path202"/>
    </clipPath>
    <radialGradient fx="0" fy="0" cx="0" cy="0" r="1" gradientUnits="userSpaceOnUse" gradientTransform="matrix(409.202,-65.6975,-65.6975,-409.202,2435.61,2493.03)" spreadMethod="pad" id="radialGradient210">
      <stop style="stop-opacity:1;stop-color:#fabda6" offset="0" id="stop206"/>
      <stop style="stop-opacity:1;stop-color:#f9ad90" offset="1" id="stop208"/>
    </radialGradient>
    <clipPath clipPathUnits="userSpaceOnUse" id="clipPath226">
      <path d="m 2984.21,2504.39 -250.36,88.68 c -18.22,-34.04 -37.71,-59.6 -57.03,-64.72 -29.24,-7.66 -99.87,-20.92 -171.13,-33.38 -9.42,-1.76 -18.84,-3.36 -28.27,-5.12 -84.84,-14.69 -162.81,-27.32 -162.81,-27.32 l -0.16,-4.15 v -2.72 l -1.92,-63.11 v -16.02 c 0,0 85,4.36 192.21,-3.15 150.03,-10.7 343.51,-17.1 407.57,13.09 30.04,14.23 54.01,60.88 72.87,118.4 z" id="path224"/>
    </clipPath>
    <radialGradient fx="0" fy="0" cx="0" cy="0" r="1" gradientUnits="userSpaceOnUse" gradientTransform="matrix(409.199,-65.6972,-65.6972,-409.199,2435.61,2493.03)" spreadMethod="pad" id="radialGradient232">
      <stop style="stop-opacity:1;stop-color:#fabda6" offset="0" id="stop228"/>
      <stop style="stop-opacity:1;stop-color:#f9ad90" offset="1" id="stop230"/>
    </radialGradient>
    <clipPath clipPathUnits="userSpaceOnUse" id="clipPath280">
      <path d="m 3931.83,1627.85 c -17.15,-83.25 -11.99,-225.06 -122.12,-247.52 -29.66,-6.04 -58.31,14.51 -75.55,38.07 -22.56,30.83 -27.96,96.08 -27.57,133.41 0.31,29.58 10.4,62.56 13.64,92.41 3.52,32.23 6.37,64.53 10.13,96.74 13.55,116.08 74.19,213.37 176.76,271.32 7.94,-38.11 26.03,-70.36 41.99,-106.95 7.28,-16.68 13.84,-34.27 18.58,-51.75 8.38,-30.95 -1.76,-62.23 -9.29,-91.88 -11.13,-43.83 -17.43,-89.51 -26.57,-133.85 z" id="path278"/>
    </clipPath>
    <linearGradient x1="0" y1="0" x2="1" y2="0" gradientUnits="userSpaceOnUse" gradientTransform="matrix(0.0271745,-633.004,-633.004,-0.0271745,3838.69,2012.27)" spreadMethod="pad" id="linearGradient286">
      <stop style="stop-opacity:1;stop-color:#5c60b6" offset="0" id="stop282"/>
      <stop style="stop-opacity:1;stop-color:#523ea0" offset="1" id="stop284"/>
    </linearGradient>
    <clipPath clipPathUnits="userSpaceOnUse" id="clipPath298">
      <path d="m 3583.28,1651.69 c 19.59,-82.72 84.12,-209.09 -6.24,-275.95 -24.33,-18 -58.98,-11.44 -84.56,2.64 -33.46,18.42 -65.9,75.3 -81.29,109.31 -12.21,26.95 -16.98,61.11 -26.63,89.53 -10.43,30.7 -21.47,61.19 -31.66,91.97 -36.71,110.96 -22.79,224.75 45.74,320.58 23.27,-31.2 53.3,-52.8 83.21,-79.23 13.62,-12.05 27,-25.24 38.67,-39.08 20.67,-24.53 24.68,-57.16 30.36,-87.22 8.41,-44.44 21.98,-88.51 32.4,-132.55 z" id="path296"/>
    </clipPath>
    <linearGradient x1="0" y1="0" x2="1" y2="0" gradientUnits="userSpaceOnUse" gradientTransform="matrix(267.194,-573.847,-573.847,-267.194,3336.6,1960.88)" spreadMethod="pad" id="linearGradient304">
      <stop style="stop-opacity:1;stop-color:#5c60b6" offset="0" id="stop300"/>
      <stop style="stop-opacity:1;stop-color:#523ea0" offset="1" id="stop302"/>
    </linearGradient>
    <clipPath clipPathUnits="userSpaceOnUse" id="clipPath316">
      <path d="m 3774.17,1715.8 c 4.65,-105.1 53.85,-273.67 -71.48,-334.01 -33.76,-16.25 -74.36,-0.27 -102.19,22.77 -36.42,30.15 -62.69,106.81 -73.53,151.71 -8.59,35.59 -6.49,78.22 -11.64,115.01 -5.56,39.74 -11.93,79.36 -17.19,119.15 -18.93,143.38 24.33,278.5 129.83,379.12 21.07,-43.31 52.58,-76.52 82.8,-115.59 13.79,-17.8 26.99,-36.92 37.98,-56.45 19.45,-34.6 16.76,-75.21 16.71,-113.06 -0.06,-55.96 6.23,-112.69 8.71,-168.65 z" id="path314"/>
    </clipPath>
    <linearGradient x1="0" y1="0" x2="1" y2="0" gradientUnits="userSpaceOnUse" gradientTransform="matrix(191.938,-759.499,-759.499,-191.938,3545.88,2148.8)" spreadMethod="pad" id="linearGradient322">
      <stop style="stop-opacity:1;stop-color:#5c60b6" offset="0" id="stop318"/>
      <stop style="stop-opacity:1;stop-color:#523ea0" offset="1" id="stop320"/>
    </linearGradient>
  </defs>
  <sodipodi:namedview id="namedview4" pagecolor="#ffffff" bordercolor="#000000" borderopacity="0.25" inkscape:showpageshadow="2" inkscape:pageopacity="0.0" inkscape:pagecheckerboard="0" inkscape:deskcolor="#d1d1d1"/>
  <g id="g8" inkscape:groupmode="layer" inkscape:label="ink_ext_XXXXXX" transform="matrix(1.3333333,0,0,-1.3333333,0,666.66667)">
    <g id="g10" transform="scale(0.1)">
      <path d="M 0,0 H 5000 V 5000 H 0 Z" style="fill:transparent;fill-opacity:1;fill-rule:nonzero;stroke:none" id="path12"/>
      <path d="M 4656.81,1954.15 4499.14,847.059 H 489.98 L 371.578,1691.62 c -13.168,94.62 39.145,186.32 127.426,223.03 l 355.824,147.66 v 353.88 c 0,104.26 76.332,192.66 179.502,207.66 l 84.13,12.32 141.33,477.88 c 26.34,89.27 108.29,150.35 201.21,150.35 h 1445.6 c 54.99,0 105.35,-21.21 142.91,-56.09 37.56,-35 62.32,-83.65 66.34,-138.52 l 688.35,-72.68 c 102.19,-10.85 181.45,-93.89 187.55,-196.45 l 27.8,-477.52 486.42,-137.42 c 101.21,-28.53 165.59,-127.55 150.84,-231.57" style="fill:#ddecf1;fill-opacity:1;fill-rule:nonzero;stroke:none" id="path14"/>
      <path d="M 730.344,1725.83 855.492,847.059 H 4037.8 l 93.99,670.371 c 10.46,75.12 -31.07,147.9 -101.15,177.03 l -282.44,117.22 v 280.89 c 0,82.75 -60.58,152.93 -142.47,164.83 l -66.79,9.78 -112.18,379.33 c -20.91,70.85 -85.95,119.34 -159.71,119.34 H 2119.59 c -43.65,0 -83.62,-16.84 -113.44,-44.52 -29.81,-27.78 -49.46,-66.4 -52.65,-109.96 l -546.39,-57.68 c -81.11,-8.62 -144.03,-74.53 -148.87,-155.94 l -22.07,-379.03 -386.096,-109.08 c -80.34,-22.66 -131.445,-101.25 -119.73,-183.81" style="fill:#cfdce4;fill-opacity:1;fill-rule:nonzero;stroke:none" id="path16"/>
      <path d="m 3355.72,1174.51 c 0,94.72 -69.35,175.03 -163.06,188.66 l -76.44,11.19 -128.4,434.14 c -23.92,81.08 -98.37,136.58 -182.78,136.58 H 1491.78 c -49.96,0 -95.72,-19.27 -129.83,-50.96 -34.12,-31.79 -56.61,-75.99 -60.27,-125.84 L 733.105,1708.25 855.758,847.059 H 3370.13 l -14.41,5.98 v 321.471" style="fill:#bdd0d8;fill-opacity:1;fill-rule:nonzero;stroke:none" id="path18"/>
      <path d="m 1202.31,3098.28 h 975.551 v 910.535 H 1202.31 Z" style="fill:#192941;fill-opacity:1;fill-rule:nonzero;stroke:none" id="path20"/>
      <path d="m 1202.31,3912.52 h 975.551 v 96.2969 H 1202.31 Z" style="fill:#2c4666;fill-opacity:1;fill-rule:nonzero;stroke:none" id="path22"/>
      <path d="m 1966.98,3959.58 c 0,-9.75 -7.9,-17.66 -17.64,-17.66 -9.76,0 -17.66,7.91 -17.66,17.66 0,9.75 7.9,17.65 17.66,17.65 9.74,0 17.64,-7.9 17.64,-17.65" style="fill:#5c60b6;fill-opacity:1;fill-rule:nonzero;stroke:none" id="path24"/>
      <path d="m 2040.69,3959.58 c 0,-9.75 -7.9,-17.66 -17.65,-17.66 -9.75,0 -17.65,7.91 -17.65,17.66 0,9.75 7.9,17.65 17.65,17.65 9.75,0 17.65,-7.9 17.65,-17.65" style="fill:#f8cf3e;fill-opacity:1;fill-rule:nonzero;stroke:none" id="path26"/>
      <path d="m 2109.13,3957.72 c 0,-9.75 -7.9,-17.65 -17.65,-17.65 -9.75,0 -17.65,7.9 -17.65,17.65 0,9.75 7.9,17.65 17.65,17.65 9.75,0 17.65,-7.9 17.65,-17.65" style="fill:#f46b6f;fill-opacity:1;fill-rule:nonzero;stroke:none" id="path28"/>
      <path d="M 1513.95,3811.39 H 1375.78 V 3823 h 138.17 v -11.61" style="fill:#f46b6f;fill-opacity:1;fill-rule:nonzero;stroke:none" id="path30"/>
      <path d="M 1676.12,3811.39 H 1537.95 V 3823 h 138.17 v -11.61" style="fill:#f8cf3e;fill-opacity:1;fill-rule:nonzero;stroke:none" id="path32"/>
      <path d="m 1632.77,3748.83 h -214.25 v 11.61 h 214.25 v -11.61" style="fill:#5c60b6;fill-opacity:1;fill-rule:nonzero;stroke:none" id="path34"/>
      <path d="M 1777.11,3748.83 H 1668.2 v 11.61 h 108.91 v -11.61" style="fill:#f46b6f;fill-opacity:1;fill-rule:nonzero;stroke:none" id="path36"/>
      <path d="m 1586.94,3686.27 h -94.1 v 11.62 h 94.1 v -11.62" style="fill:#f8cf3e;fill-opacity:1;fill-rule:nonzero;stroke:none" id="path38"/>
      <path d="m 1953.51,3686.27 h -312.18 v 11.62 h 312.18 v -11.62" style="fill:#f8cf3e;fill-opacity:1;fill-rule:nonzero;stroke:none" id="path40"/>
      <path d="m 1922.7,3623.72 h -356.77 v 11.61 h 356.77 v -11.61" style="fill:#5c60b6;fill-opacity:1;fill-rule:nonzero;stroke:none" id="path42"/>
      <path d="m 1586.53,3561.16 h -109.8 v 11.61 h 109.8 v -11.61" style="fill:#f46b6f;fill-opacity:1;fill-rule:nonzero;stroke:none" id="path44"/>
      <path d="m 1743.31,3561.16 h -109.8 v 11.61 h 109.8 v -11.61" style="fill:#5c60b6;fill-opacity:1;fill-rule:nonzero;stroke:none" id="path46"/>
      <path d="m 1535.52,3248.21 h -159.74 v -11.61 h 159.74 v 11.61" style="fill:#f46b6f;fill-opacity:1;fill-rule:nonzero;stroke:none" id="path48"/>
      <path d="m 1751.19,3248.21 h -159.73 v -11.61 h 159.73 v 11.61" style="fill:#f8cf3e;fill-opacity:1;fill-rule:nonzero;stroke:none" id="path50"/>
      <path d="m 1961.06,3248.21 h -159.73 v -11.61 h 159.73 v 11.61" style="fill:#f46b6f;fill-opacity:1;fill-rule:nonzero;stroke:none" id="path52"/>
      <path d="m 1730.69,3310.77 h -312.17 v -11.61 h 312.17 v 11.61" style="fill:#5c60b6;fill-opacity:1;fill-rule:nonzero;stroke:none" id="path54"/>
      <path d="m 2091.53,3310.77 h -312.16 v -11.61 h 312.16 v 11.61" style="fill:#f46b6f;fill-opacity:1;fill-rule:nonzero;stroke:none" id="path56"/>
      <path d="m 1802.62,3373.33 h -309.78 v -11.61 h 309.78 v 11.61" style="fill:#f46b6f;fill-opacity:1;fill-rule:nonzero;stroke:none" id="path58"/>
      <path d="m 1915.85,3373.33 h -86.22 v -11.61 h 86.22 v 11.61" style="fill:#f8cf3e;fill-opacity:1;fill-rule:nonzero;stroke:none" id="path60"/>
      <path d="m 1589.23,3435.89 h -116.62 v -11.61 h 116.62 v 11.61" style="fill:#f8cf3e;fill-opacity:1;fill-rule:nonzero;stroke:none" id="path62"/>
      <path d="m 1767.78,3435.89 h -116.62 v -11.61 h 116.62 v 11.61" style="fill:#5c60b6;fill-opacity:1;fill-rule:nonzero;stroke:none" id="path64"/>
      <path d="m 1959.4,3435.89 h -116.62 v -11.61 h 116.62 v 11.61" style="fill:#f46b6f;fill-opacity:1;fill-rule:nonzero;stroke:none" id="path66"/>
      <path d="m 1771.32,3498.45 h -163.53 v -11.62 h 163.53 v 11.62" style="fill:#f8cf3e;fill-opacity:1;fill-rule:nonzero;stroke:none" id="path68"/>
      <path d="m 1546.1,3498.45 h -163.52 v -11.62 h 163.52 v 11.62" style="fill:#5c60b6;fill-opacity:1;fill-rule:nonzero;stroke:none" id="path70"/>
      <path d="m 1300.21,3819.29 h -14.86 v 14.87 h 14.86 v -14.87" style="fill:#fbfdfe;fill-opacity:1;fill-rule:nonzero;stroke:none" id="path72"/>
      <path d="m 1300.21,3743.5 h -14.86 v 30.31 h 14.86 z m 0,-75.79 h -14.86 v 30.31 h 14.86 z m 0,-75.8 h -14.86 v 30.32 h 14.86 z m 0,-75.79 h -14.86 v 30.32 h 14.86 z m 0,-75.79 h -14.86 v 30.31 h 14.86 z m 0,-75.8 h -14.86 v 30.31 h 14.86 z m 0,-75.79 h -14.86 v 30.31 h 14.86 v -30.31" style="fill:#fbfdfe;fill-opacity:1;fill-rule:nonzero;stroke:none" id="path74"/>
      <path d="m 1300.21,3228.39 h -14.86 v 14.87 h 14.86 v -14.87" style="fill:#fbfdfe;fill-opacity:1;fill-rule:nonzero;stroke:none" id="path76"/>
      <path d="m 3191.06,3707.1 h -803.3 v 495.15 h 803.3 V 3707.1" style="fill:#f46b6f;fill-opacity:1;fill-rule:nonzero;stroke:none" id="path78"/>
      <path d="m 2699.75,4003.1 -95.58,-40.8 95.58,-40.19 -12.51,-28.87 -114.62,51.2 v 35.43 l 114.62,51.51 12.51,-28.28" style="fill:#fbfdfe;fill-opacity:1;fill-rule:nonzero;stroke:none" id="path80"/>
      <path d="m 2840.6,4097.47 -69.37,-266.46 -33.05,7.74 69.67,266.16 32.75,-7.44" style="fill:#fbfdfe;fill-opacity:1;fill-rule:nonzero;stroke:none" id="path82"/>
      <path d="m 3006.46,3979.87 v -35.43 l -114.62,-51.2 -12.5,28.87 95.27,40.19 -95.27,40.8 12.5,28.28 114.62,-51.51" style="fill:#fbfdfe;fill-opacity:1;fill-rule:nonzero;stroke:none" id="path84"/>
      <path d="M 3621.01,2917.04 H 3163.48 V 3243 h 457.53 v -325.96" style="fill:#5c60b6;fill-opacity:1;fill-rule:nonzero;stroke:none" id="path86"/>
      <path d="m 3354.86,3172.63 c -14.71,0 -19.63,-3.97 -19.63,-14.95 v -49.06 c 0,-19.16 -7.94,-25 -21.26,-28.74 13.32,-3.5 21.26,-9.34 21.26,-28.26 v -49.06 c 0,-10.98 5.15,-14.95 19.63,-14.95 v -21.5 c -37.15,0 -47.66,11.92 -47.66,36.68 v 46.49 c 0,13.32 -3.5,18.46 -15.65,18.46 v 24.53 c 12.15,0 15.65,5.37 15.65,18.69 v 46.49 c 0,24.99 10.51,36.67 47.66,36.67 v -21.49" style="fill:#f4f6f5;fill-opacity:1;fill-rule:nonzero;stroke:none" id="path88"/>
      <path d="m 3477.28,3157.45 v -46.49 c 0,-13.32 3.5,-18.69 15.88,-18.69 v -24.53 c -12.38,0 -15.88,-5.14 -15.88,-18.46 v -46.49 c 0,-24.76 -10.51,-36.68 -47.65,-36.68 v 21.5 c 14.48,0 19.62,3.97 19.62,14.95 v 49.06 c 0,18.92 7.94,24.76 21.26,28.26 -13.32,3.74 -21.26,9.58 -21.26,28.74 v 49.06 c 0,10.98 -4.9,14.95 -19.62,14.95 v 21.49 c 37.14,0 47.65,-11.68 47.65,-36.67" style="fill:#f4f6f5;fill-opacity:1;fill-rule:nonzero;stroke:none" id="path90"/>
      <path d="M 1405.13,3787.92 H 891.832 v 343.32 h 513.298 v -343.32" style="fill:#f8cf3e;fill-opacity:1;fill-rule:nonzero;stroke:none" id="path92"/>
      <path d="m 1169.84,3938.18 c -23.23,-23.22 -61.02,-23.22 -84.25,0.01 -23.23,23.23 -23.23,61.01 0,84.24 23.23,23.23 61.02,23.23 84.25,0 23.23,-23.23 23.23,-61.02 0,-84.25 z m -108.13,94.51 c -24.51,-30.68 -24.13,-75.49 0.84,-105.79 28.37,-34.42 76.97,-39.97 111.89,-16.69 l 53.88,-53.87 c 2.27,-2.27 5.95,-2.27 8.23,0 l 15.13,15.14 c 2.28,2.27 2.28,5.96 0,8.23 l -53.87,53.87 c 21.82,32.72 18.32,77.46 -10.52,106.3 -35.1,35.1 -93.7,32.7 -125.58,-7.19" style="fill:#fbfdfe;fill-opacity:1;fill-rule:nonzero;stroke:none" id="path94"/>
      <g id="g96">
        <g id="g98" clip-path="url(#clipPath102)">
          <path d="m 2898.25,3070.78 c -1.11,-11.34 -16.61,-129.74 -138.36,-129.74 -127.81,0 -106.4,126.55 -106.4,126.55 l -0.16,0.79 c 12.46,2.56 25.88,3.52 40.1,1.92 v 59.91 l 145.08,81.17 h 5.27 v -139.8 c 0,0 23,2.72 54.47,-0.8" style="fill:url(#radialGradient108);fill-opacity:1;fill-rule:nonzero;stroke:none" id="path110"/>
        </g>
      </g>
      <g id="g112">
        <g id="g114" clip-path="url(#clipPath118)">
          <path d="m 2827.79,3478.83 c 20.58,-20.86 36.13,-47.85 43.61,-80.84 13.94,-61.46 0.83,-126.49 -17.01,-185.72 -3.04,-10.14 -6.51,-20.36 -12.77,-28.89 -4.46,-6.08 -10.21,-11.09 -15.91,-16.05 -25.8,-22.47 -51.6,-44.95 -77.34,-67.49 -17.46,-15.27 -124.89,-28 -145.4,-13.35 -79.01,56.5 -94.22,220.18 -78.41,303.87 26.24,138.82 204.67,188.45 303.23,88.47" style="fill:url(#radialGradient124);fill-opacity:1;fill-rule:nonzero;stroke:none" id="path126"/>
        </g>
      </g>
      <path d="m 2783.42,3301.18 c 1.05,13.36 14.79,27.99 28.58,19.32 14.28,-8.98 10.92,-32.71 5,-45.76 -4.64,-10.25 -20.15,-21.46 -30.67,-11.94 -8.8,7.99 4.88,17.4 5.33,24.69 0.41,6.56 -12.71,11.26 -7.34,18.28" style="fill:#f7a388;fill-opacity:1;fill-rule:nonzero;stroke:none" id="path128"/>
      <path d="m 2785.95,3239.39 c 14.4,-4.32 38.8,6.66 44.97,26.72 6.17,20.06 5.51,42.96 5.51,42.96 0,0 7.25,-18.16 3.52,-47.38 -3.73,-29.21 -13.96,-57.04 -36.89,-57.41 -22.93,-0.36 -17.11,35.11 -17.11,35.11" style="fill:#f7a388;fill-opacity:1;fill-rule:nonzero;stroke:none" id="path130"/>
      <path d="m 2768.28,3260.18 -1.61,-0.48 c -8.92,-1.25 -12.48,9.54 -13.8,16.29 -3.09,15.77 -2.61,31.73 -3.15,47.68 -0.13,4 0.18,8.99 -1.46,12.75 -5.01,11.47 -18.36,18.92 -22.43,30.77 -4.74,13.78 8.64,27.53 3.33,42.61 -8.12,23.11 -37.8,28.42 -59.26,28.17 -32.2,-0.38 -63.6,-6.35 -95.38,-11.28 -33.55,-5.21 -76.43,-10.15 -105.99,11.07 -35.64,25.57 -50.52,92.22 -23.93,128.7 14.49,19.9 41.98,30.49 66.06,31.04 25.53,0.59 47.1,-14.63 70.52,-22.29 18.65,-6.1 36.69,11.74 54.12,15.22 21.92,4.38 31.22,-19.54 50.61,-20.19 18.83,-0.64 37.3,14.07 55.61,17.41 36.51,6.67 34.36,-30 58.85,-42.52 15.23,-7.79 34.89,-3.07 50.29,-10.98 11.7,-6.01 13.34,-16.57 15.89,-28.53 2.21,-10.35 2.33,-22.29 5.74,-32.12 3.06,-8.84 10.48,-14.42 16.27,-21.33 6.32,-7.55 10.36,-16.35 13.56,-25.81 7.11,-20.98 8.69,-43.61 6.75,-65.57 -3.25,-36.86 -15.12,-73.15 -27.43,-107.87 -7.99,-22.52 -10.96,-45.98 -23.25,-67.3 -3.3,-5.73 -17.96,-22.47 -23.41,-10 -1.17,2.67 -0.99,5.71 -0.79,8.62 1.63,23.23 23.25,172.87 -33.44,154.9 -11.9,-3.78 -19.88,-13.68 -24.32,-24.97 -5.3,-13.52 -5.67,-27.13 -5,-41.41 0.1,-2.04 0.15,-4.09 0.07,-6.13 -0.1,-2.64 -0.76,-5.32 -3.02,-6.45" style="fill:#38397c;fill-opacity:1;fill-rule:nonzero;stroke:none" id="path132"/>
      <path d="m 2693.43,3084.01 c 64.46,10.36 106.99,61.28 106.99,61.28 0,0 -17.38,-85.81 -110.86,-90.35 l 3.87,29.07" style="fill:#f7a388;fill-opacity:1;fill-rule:nonzero;stroke:none" id="path134"/>
      <path d="m 2799.24,1914.3 h 92.26 v -885.26 c 0,-8.97 -7.28,-16.26 -16.26,-16.26 h -59.74 c -8.99,0 -16.26,7.29 -16.26,16.26 v 885.26" style="fill:#16202d;fill-opacity:1;fill-rule:nonzero;stroke:none" id="path136"/>
      <path d="m 2591.66,1901.64 h 507.42 v -13.85 c 0,-34.87 -28.27,-63.14 -63.14,-63.14 H 2654.8 c -34.87,0 -63.14,28.27 -63.14,63.14 v 13.85" style="fill:#2f415b;fill-opacity:1;fill-rule:nonzero;stroke:none" id="path138"/>
      <path d="m 2799.24,1117.74 h 92.26 V 912.609 c 0,-8.98 -7.28,-16.257 -16.26,-16.257 h -59.74 c -8.99,0 -16.26,7.277 -16.26,16.257 v 205.131" style="fill:#16202d;fill-opacity:1;fill-rule:nonzero;stroke:none" id="path140"/>
      <path d="m 2366.57,950.352 c 0,-29.821 24.18,-54 54.01,-54 29.81,0 53.99,24.179 53.99,54 0,29.828 -24.18,53.998 -53.99,53.998 -29.83,0 -54.01,-24.17 -54.01,-53.998" style="fill:#16202d;fill-opacity:1;fill-rule:nonzero;stroke:none" id="path142"/>
      <path d="m 3216.16,950.352 c 0,-29.821 24.18,-54 54.01,-54 29.82,0 54,24.179 54,54 0,29.828 -24.18,53.998 -54,53.998 -29.83,0 -54.01,-24.17 -54.01,-53.998" style="fill:#16202d;fill-opacity:1;fill-rule:nonzero;stroke:none" id="path144"/>
      <path d="m 2752.56,1024.3 h 185.62 v 162.2 h -185.62 v -162.2" style="fill:#2f415b;fill-opacity:1;fill-rule:nonzero;stroke:none" id="path146"/>
      <path d="m 2366.57,986.129 h 957.6 v 18.821 c 0,31.77 -25.75,57.51 -57.52,57.51 h -842.57 c -31.76,0 -57.51,-25.74 -57.51,-57.51 v -18.821" style="fill:#f8cf3e;fill-opacity:1;fill-rule:nonzero;stroke:none" id="path148"/>
      <path d="m 2845.37,1200.98 h -32 v 605.48 h 32 v -605.48" style="fill:#2f415b;fill-opacity:1;fill-rule:nonzero;stroke:none" id="path150"/>
      <path d="m 3207.86,2555.97 c -22.14,0.7 -40.14,-17.63 -38.86,-39.74 6.33,-109.9 -16.96,-378 -119.32,-469.47 -125.16,-111.85 -479.89,-96.61 -479.89,-96.61 0,0 -58.59,-71.9 58.58,-87.87 117.17,-15.98 447.36,-5.34 527.25,69.22 77.32,72.18 123.23,261.27 88.63,590.39 -1.98,18.87 -17.41,33.49 -36.39,34.08" style="fill:#f8cf3e;fill-opacity:1;fill-rule:nonzero;stroke:none" id="path152"/>
      <g id="g154">
        <g id="g156" clip-path="url(#clipPath160)">
          <path d="m 2543.24,1200.98 42.18,-96.19 -129.25,-56.72 -42.34,96.5 129.41,56.41" style="fill:url(#radialGradient166);fill-opacity:1;fill-rule:nonzero;stroke:none" id="path168"/>
        </g>
      </g>
      <path d="m 3152.77,2270.01 c -7.98,-15.99 -582.28,-0.32 -636.53,-5.27 0,0 -351.49,-167.77 -401.98,-324.82 -5.12,-15.82 -6.55,-36.75 -4.95,-61.68 14.05,-221.12 265.86,-750.6 265.86,-750.6 l 38.66,16.93 129.41,56.41 18.38,7.98 c 0,0 -199.72,595.15 -159.77,627.1 39.94,31.96 492.57,111.84 649.62,154.34 157.22,42.67 101.3,279.61 101.3,279.61" style="fill:#504b90;fill-opacity:1;fill-rule:nonzero;stroke:none" id="path170"/>
      <g id="g172">
        <g id="g174" clip-path="url(#clipPath178)">
          <path d="m 2050.48,1176.23 10.1,-144.5 h -141.09 l -10.1,144.82 141.09,-0.32" style="fill:url(#radialGradient184);fill-opacity:1;fill-rule:nonzero;stroke:none" id="path186"/>
        </g>
      </g>
      <path d="m 2513.37,2269.69 -5.12,-2.24 c 0,0 -588.44,-82.61 -684.29,-247.65 -62.32,-107.36 58.29,-891.89 58.29,-891.89 l 208.18,-0.48 c 0,0 -31.13,653.52 -20.75,689.94 11.67,41.55 31.64,56.57 39.63,60.87 -1.6,24.93 -0.17,45.86 4.95,61.68 50.49,157.05 401.98,324.82 401.98,324.82 -1.11,0.79 -2.08,2.55 -2.87,4.95" style="fill:#38397c;fill-opacity:1;fill-rule:nonzero;stroke:none" id="path188"/>
      <path d="m 3081.73,2813.39 -39.46,-5.43 c 0,0 -9.59,-106.41 -33.08,-212.82 l -491.61,-186.61 -6.72,-35.63 c -2.07,0.16 -4.15,0.32 -6.07,0.48 0.16,-7.35 0.16,-14.54 0.48,-21.25 1.12,-41.07 3.83,-70.62 8.15,-82.44 0.8,-2.4 1.76,-4.16 2.88,-4.95 13.35,-10.89 187.23,10.21 375.2,-58.81 163.03,-59.87 254.41,-125.25 258.63,-116.47 51.24,106.52 -42.04,524.53 -68.4,723.93" style="fill:#f46b6f;fill-opacity:1;fill-rule:nonzero;stroke:none" id="path190"/>
      <path d="m 3030.44,2569.58 c -13.1,-62.95 -46.97,-188.21 -113.44,-204.99 -86.76,-22.05 -254.51,-20.93 -411.73,-12.46 -0.32,6.71 -0.32,13.9 -0.48,21.25 1.92,-0.16 4,-0.32 6.07,-0.48 l 6.72,35.63 491.61,186.61 c 23.49,106.41 33.08,212.82 33.08,212.82 0,0 0,-0.64 0.15,-1.76 0.96,-16.46 7.67,-143.64 -11.98,-236.62" style="fill:#f14b53;fill-opacity:1;fill-rule:nonzero;stroke:none" id="path192"/>
      <path d="m 2537.66,2970.44 c -8.79,-15.97 -21.42,-186.93 -28.28,-356.61 l -100.5,93.79 c 42.65,82.6 128.78,262.82 128.78,262.82" style="fill:#f14b53;fill-opacity:1;fill-rule:nonzero;stroke:none" id="path194"/>
      <path d="m 2477.42,2489.85 c -84.84,-14.69 -162.81,-27.32 -162.81,-27.32 l -0.16,-4.15 c -94.42,75.41 -238.06,289.02 -238.06,289.02 0,0 42.98,51.61 53.69,65.19 1.59,2.08 235.82,-159.13 247.8,-157.69 3.04,0.31 15.02,21.4 31,52.72 l 100.5,-93.79 c -1.61,-40.42 -2.89,-80.68 -3.69,-118.86 -9.42,-1.76 -18.84,-3.36 -28.27,-5.12" style="fill:#f7a388;fill-opacity:1;fill-rule:nonzero;stroke:none" id="path196"/>
      <g id="g198">
        <g id="g200" clip-path="url(#clipPath204)">
          <path d="m 2314.61,2462.53 -2.08,-69.98 h -255.64 c 0,0 25.41,99.86 94.59,99.86 69.18,0 95.86,-36.59 95.86,-36.59 l 67.27,6.71" style="fill:url(#radialGradient210);fill-opacity:1;fill-rule:nonzero;stroke:none" id="path212"/>
        </g>
      </g>
      <path d="m 2128.15,2814.19 1.93,-1.6 c -10.71,-13.58 -53.69,-65.19 -53.69,-65.19 l -26.68,18.85 c 0,0 -29.4,-17.89 -63.59,0.81 -35.63,19.33 -13.58,65.49 -11.75,70.96 -6.91,-1.95 -49.6,-36.45 -56.31,-32.78 -6.71,3.68 -11.66,15.82 36.1,62.95 47.62,47.13 112.48,-13.42 114.4,-13.42 l 59.59,-40.58" style="fill:#f7a388;fill-opacity:1;fill-rule:nonzero;stroke:none" id="path214"/>
      <path d="m 1991.68,2775.07 c 0,0 -10.3,-19.28 8.01,-27.67 18.31,-8.38 53.93,-14.43 69.24,-12.96 15.3,1.48 27.47,22.89 27.47,22.89 l -46.35,43.49 H 2013 l -21.32,-25.75" style="fill:#f7a388;fill-opacity:1;fill-rule:nonzero;stroke:none" id="path216"/>
      <path d="m 1988.94,2765.6 c 2.74,9.47 29.06,4.42 45.37,4.03 12.02,-0.28 18.6,2.87 22.31,12.03 3.72,9.15 -13.73,23.74 -17.16,19.16 -3.43,-4.57 6.29,-11.02 6.58,-17.09 0.29,-6.08 -17.16,-8.09 -30.61,-8.09 -13.45,0 -36.65,-3.5 -36.65,-3.5 l 10.16,-6.54" style="fill:#e9896f;fill-opacity:1;fill-rule:nonzero;stroke:none" id="path218"/>
      <g id="g220">
        <g id="g222" clip-path="url(#clipPath226)">
          <path d="m 2984.21,2504.39 -250.36,88.68 c -18.22,-34.04 -37.71,-59.6 -57.03,-64.72 -29.24,-7.66 -99.87,-20.92 -171.13,-33.38 -9.42,-1.76 -18.84,-3.36 -28.27,-5.12 -84.84,-14.69 -162.81,-27.32 -162.81,-27.32 l -0.16,-4.15 v -2.72 l -1.92,-63.11 v -16.02 c 0,0 85,4.36 192.21,-3.15 150.03,-10.7 343.51,-17.1 407.57,13.09 30.04,14.23 54.01,60.88 72.87,118.4 l -0.97,-0.48" style="fill:url(#radialGradient232);fill-opacity:1;fill-rule:nonzero;stroke:none" id="path234"/>
        </g>
      </g>
      <path d="m 2733.85,2593.07 250.36,-88.68 -11.33,-33.45 -247.79,106.29 8.76,15.84" style="fill:#f7a388;fill-opacity:1;fill-rule:nonzero;stroke:none" id="path236"/>
      <path d="m 2733.85,2593.07 c -18.22,-34.04 -37.71,-59.6 -57.03,-64.72 -29.24,-7.66 -99.87,-20.92 -171.13,-33.38 0.8,38.18 2.08,78.44 3.68,118.86 6.87,169.68 19.5,340.64 28.29,356.61 14.37,26.69 53.68,84.68 115.67,97.94 l 0.16,-0.79 c 0,0 -21.41,-126.55 106.4,-126.55 121.75,0 137.25,118.4 138.36,129.74 62.64,-7.03 158.66,-38.34 171.92,-164.24 2.72,-24.93 6.55,-56.88 11.5,-93.15 l -39.46,-5.43 c 0,0 -15.98,-177.35 -57.03,-303.09 l -0.97,-0.48 -250.36,88.68" style="fill:#f46b6f;fill-opacity:1;fill-rule:nonzero;stroke:none" id="path238"/>
      <path d="m 2757.59,2606.36 -26.33,9.78 99.97,242 -73.64,-251.78" style="fill:#f7978b;fill-opacity:1;fill-rule:nonzero;stroke:none" id="path240"/>
      <path d="m 2898.25,3070.78 h -54.47 c 0,0 -77.54,-85.13 -127.37,-85.13 -49.85,0 -22.98,84.65 -22.98,84.65 h -24.32 c -69.84,0 -128.62,-52.45 -136.53,-121.85 -0.9,-7.95 -1.73,-15.49 -2.43,-22.31 -5.34,-51.5 203.29,-88.98 203.29,-88.98 l 107.42,6.01 65.23,127.27 13,52.12 -20.84,48.22" style="fill:#f46b6f;fill-opacity:1;fill-rule:nonzero;stroke:none" id="path242"/>
      <path d="m 2240.83,937.359 c 4.85,-26.019 22.9,-44.527 48.93,-39.668 l 347.01,64.719 c 8.78,1.641 14.56,10.078 12.93,18.86 l -5.74,30.79 c 0,0 -364.97,-63.869 -403.31,-74.501 l 0.18,-0.2" style="fill:#f4f6f5;fill-opacity:1;fill-rule:nonzero;stroke:none" id="path244"/>
      <path d="m 2344.07,1024.74 c 3.62,3.14 7.1,6.26 10.72,9.39 6.96,6.23 13.81,12.3 20.41,18.17 3.47,3.11 6.96,6.23 10.18,9.16 6.34,5.67 12.31,10.99 17.66,15.77 3.84,3.46 7.44,6.74 10.67,9.67 5.93,5.32 10.77,9.65 14.17,12.7 2.94,2.63 7.31,2.75 10.32,0.21 14.27,-11.99 60.37,-39.41 143.89,12.26 3.95,2.45 9.21,1.17 11.36,-2.96 l 50.51,-97.05 c 0,0 -364.97,-63.869 -403.31,-74.501 12.61,7.863 59.19,48.171 103.42,87.181" style="fill:#38397c;fill-opacity:1;fill-rule:nonzero;stroke:none" id="path246"/>
      <path d="m 1694.32,940.77 c 0.64,-26.469 15.5,-47.622 41.98,-46.961 l 352.89,8.613 c 8.93,0.219 15.99,7.629 15.77,16.547 l -0.77,31.312 c 0,0 -370.47,-4.902 -410.01,-9.293 l 0.14,-0.218" style="fill:#f4f6f5;fill-opacity:1;fill-rule:nonzero;stroke:none" id="path248"/>
      <path d="m 1810.16,1010.58 c 4.08,2.53 8,5.04 12.08,7.56 7.87,5.05 15.59,9.95 23.03,14.69 3.94,2.52 7.87,5.04 11.53,7.41 7.16,4.6 13.89,8.9 19.94,12.76 4.35,2.82 8.42,5.49 12.07,7.85 6.7,4.31 12.18,7.82 16.01,10.28 3.32,2.13 7.66,1.56 10.24,-1.43 12.17,-14.11 53.32,-48.53 143.99,-10.82 4.3,1.78 9.28,-0.32 10.74,-4.74 l 34.4,-103.859 c 0,0 -370.47,-4.902 -410.01,-9.293 13.69,5.762 66.1,38.133 115.98,69.592" style="fill:#38397c;fill-opacity:1;fill-rule:nonzero;stroke:none" id="path250"/>
      <path d="m 1443.29,2376.53 -188.47,502.64 h 536.55 l 188.45,-502.64 h -536.53" style="fill:#a9b4b8;fill-opacity:1;fill-rule:nonzero;stroke:none" id="path252"/>
      <path d="m 2013,2376.53 h -33.18 l -188.45,502.64 30.11,-1.34 174.32,-454.96 17.2,-46.34" style="fill:#7f939f;fill-opacity:1;fill-rule:nonzero;stroke:none" id="path254"/>
      <path d="m 2002.59,2376.53 h 354.53 l -0.97,31.69 c 0,0 -354.9,0 -360.82,0" style="fill:#7f939f;fill-opacity:1;fill-rule:nonzero;stroke:none" id="path256"/>
      <path d="m 3513.02,878.34 h -85.36 v 1402.33 h 85.36 V 878.34" style="fill:#7f939f;fill-opacity:1;fill-rule:nonzero;stroke:none" id="path258"/>
      <path d="m 3049.68,878.34 h -85.36 v 1402.33 h 85.36 V 878.34" style="fill:#a9b4b8;fill-opacity:1;fill-rule:nonzero;stroke:none" id="path260"/>
      <path d="m 1565.28,878.34 h -85.35 v 1402.33 h 85.35 V 878.34" style="fill:#7f939f;fill-opacity:1;fill-rule:nonzero;stroke:none" id="path262"/>
      <path d="m 1101.96,878.34 h -85.36 v 1402.33 h 85.36 V 878.34" style="fill:#a9b4b8;fill-opacity:1;fill-rule:nonzero;stroke:none" id="path264"/>
      <path d="M 3598.44,2275.35 H 934.828 c -22.914,0 -41.488,18.58 -41.488,41.49 v 18.21 c 0,22.91 18.574,41.48 41.488,41.48 H 3598.44 c 22.91,0 41.48,-18.57 41.48,-41.48 v -18.21 c 0,-22.91 -18.57,-41.49 -41.48,-41.49" style="fill:#202450;fill-opacity:1;fill-rule:nonzero;stroke:none" id="path266"/>
      <path d="m 1344.41,2826.34 9.18,-24.47 h 106.88 l -9.18,24.47 h -106.88" style="fill:#7f939f;fill-opacity:1;fill-rule:nonzero;stroke:none" id="path268"/>
      <path d="m 2408.88,2707.62 -7.68,-14.82 108.18,-111.79 v 32.82 l -100.5,93.79" style="fill:#e9896f;fill-opacity:1;fill-rule:nonzero;stroke:none" id="path270"/>
      <path d="M 4616.6,797.738 H 297.445 v 98.633 H 4616.6 v -98.633" style="fill:#a4b7c7;fill-opacity:1;fill-rule:nonzero;stroke:none" id="path272"/>
      <g id="g274">
        <g id="g276" clip-path="url(#clipPath280)">
          <path d="m 3931.83,1627.85 c -17.15,-83.25 -11.99,-225.06 -122.12,-247.52 -29.66,-6.04 -58.31,14.51 -75.55,38.07 -22.56,30.83 -27.96,96.08 -27.57,133.41 0.31,29.58 10.4,62.56 13.64,92.41 3.52,32.23 6.37,64.53 10.13,96.74 13.55,116.08 74.19,213.37 176.76,271.32 7.94,-38.11 26.03,-70.36 41.99,-106.95 7.28,-16.68 13.84,-34.27 18.58,-51.75 8.38,-30.95 -1.76,-62.23 -9.29,-91.88 -11.13,-43.83 -17.43,-89.51 -26.57,-133.85" style="fill:url(#linearGradient286);fill-opacity:1;fill-rule:nonzero;stroke:none" id="path288"/>
        </g>
      </g>
      <path d="m 3791.06,1377.53 c 0.79,6.98 1.65,13.96 2.57,20.94 13.16,0.04 26.86,7.52 37.9,13.24 19.16,9.93 34.7,24.17 49.75,39.39 l -1.41,1.41 c -15.01,-12.61 -30.57,-24.82 -48.43,-33.15 -9.97,-4.64 -24.53,-12.23 -36.81,-13.71 1.16,8.34 2.44,16.65 3.82,24.96 13.7,1.68 26.26,10.68 37.86,17.56 19.72,11.7 36.68,26.84 54.26,41.43 l -0.25,0.31 c -26.89,-19.53 -56.85,-47.33 -90.88,-53.42 1.81,10.4 3.71,20.78 5.9,31.08 l 0.34,1.61 c 39.38,9.96 66.01,40.84 96.16,65.8 l -0.55,0.84 c -29.69,-23.06 -57.59,-49.36 -94.29,-60.56 3.19,14.75 6.5,29.45 9.83,44.12 35.62,13.15 64.07,34.02 88.97,63.09 l -0.72,0.7 c -25.77,-26.82 -54.15,-42.22 -86.83,-57.49 3.29,14.53 6.56,29.07 9.66,43.65 15.41,7.57 31.62,12.18 45.85,22.15 14.04,9.83 26.64,21.55 35.68,36.18 l -1.19,0.76 c -19.93,-28.66 -49.98,-37.58 -79.02,-52.65 2.83,13.59 5.47,27.21 7.83,40.91 32.36,17.82 67.53,34.34 85.87,68.49 l -0.5,0.34 c -19.43,-31.38 -53.39,-44.89 -84.22,-61.97 0.4,2.44 0.85,4.86 1.23,7.31 1.99,12.7 3.84,25.43 5.67,38.14 18.59,7.46 36.32,17.97 53.05,28.87 11.88,7.74 24.56,15.4 32.34,27.54 l -1.15,0.81 c -17.36,-24.87 -55.38,-39.25 -83.45,-51.69 1.82,12.85 3.63,25.7 5.46,38.56 31.15,18.85 67.81,29.27 86.98,63.26 0.57,1 -0.91,1.93 -1.54,0.95 -19.86,-31.03 -54.81,-40.6 -84.58,-58.21 1.14,7.96 2.3,15.92 3.5,23.87 33.65,12.37 72.77,40.54 90.51,70.95 0.98,1.68 -1.44,3.23 -2.54,1.63 -18.09,-26.69 -54.45,-55.7 -86.98,-66.26 1.99,12.89 4.07,25.76 6.37,38.61 l 0.49,1.13 c 15.11,4.45 30.04,15.1 43.08,23.15 15.72,9.7 30.72,20.96 40.51,36.91 1.08,1.76 -1.79,3.39 -2.8,1.58 -14.95,-26.67 -50.41,-44.55 -79.77,-54.73 0.86,4.69 1.71,9.37 2.64,14.05 1.38,6.99 2.81,13.99 4.23,20.98 12.03,8.3 27.29,12.27 39.36,21.04 10.49,7.62 19.65,16.8 28.64,26.11 0.9,0.91 -0.43,2.34 -1.37,1.45 -12.18,-11.44 -24.71,-22.43 -39.54,-30.36 -8.29,-4.44 -17.74,-6.97 -25.77,-11.84 2.35,11.43 4.69,22.86 6.93,34.31 l 0.43,0.09 0.43,-0.09 1.97,0.62 c 16.35,4.12 28.85,18.19 39.83,30.18 l -0.42,0.43 c -11.53,-10.65 -24.63,-22.45 -40.07,-27.03 l -0.15,0.07 -1.17,0.18 c 1.78,9.32 3.48,18.65 5.04,28 1.18,0.21 2.21,1.22 1.93,2.4 8.67,5.81 16.54,13.23 23.93,20.48 l -0.82,0.89 c -7.68,-6.62 -15.26,-12.08 -23.9,-16.86 3.05,19.31 5.42,38.74 6.5,58.35 0.1,1.82 -2.65,1.84 -2.81,0.05 -1.71,-18.88 -4.45,-37.58 -7.71,-56.19 -9.01,11.83 -19.05,24.01 -24.56,37.55 l -1.15,-0.34 c 2.7,-8.41 7.35,-15.76 11.95,-23.24 4.12,-6.69 7.41,-14.48 12.66,-20.42 -1.82,-9.99 -3.78,-19.95 -5.84,-29.91 -10.96,1.76 -21.01,3.84 -30.06,11.78 -11.08,9.71 -17.38,22.92 -18.47,37.57 -0.14,1.8 -2.98,1.79 -2.82,-0.01 1.25,-13.62 6.67,-26.43 15.99,-36.59 9.8,-10.68 21.31,-14.09 34.51,-16.83 -2.4,-11.49 -4.88,-22.97 -7.41,-34.44 -9.95,5.97 -19.2,13.77 -28.17,20.93 -14.49,11.54 -23.04,25.43 -35.61,38.43 -1.26,1.29 -3.31,-0.58 -2.07,-1.91 11.78,-12.52 19.75,-26.08 33.14,-37.33 9.65,-8.1 20.3,-18.26 31.81,-24.25 l -0.4,-1.82 -0.38,-0.32 -0.26,-2.57 c -2.42,-10.98 -4.83,-21.97 -7.15,-32.99 l -0.41,-2.07 c -25.62,11.73 -63.9,32.11 -67.3,61.83 -0.32,2.82 -4.54,2.04 -3.88,-0.85 7.57,-33.64 44.54,-48.55 70.01,-66.89 -2.51,-12.45 -4.82,-24.93 -6.93,-37.45 -16.55,5.7 -32.28,12.74 -46.17,23.78 -12.64,10.05 -30.51,22.17 -36.2,37.74 l -0.73,-0.32 c 5.26,-15.47 21.3,-26.11 32.97,-36.67 14.8,-13.39 29.95,-24.76 48.99,-30.12 l -0.05,-1.67 c -1.31,-7.94 -2.57,-15.88 -3.78,-23.84 -31.11,2.39 -74.65,26.02 -90.55,49.55 l -0.15,-0.12 c 10.84,-17.96 27.23,-28.45 45.72,-37.55 13.8,-6.81 28.72,-14.86 44.34,-16.02 -2.23,-14.72 -4.4,-29.45 -6.59,-44.18 -13.5,5.03 -27.8,7.44 -41.16,12.78 -19.85,7.95 -35.02,22.23 -46.71,39.78 -0.7,1.06 -2.47,0.16 -1.77,-0.94 21.54,-34.24 52.53,-44.29 88.82,-57.11 -1.81,-12.08 -3.71,-24.15 -5.7,-36.21 -29.71,5.69 -68.12,23.83 -83.15,49.63 -1.11,1.89 -4.12,0.32 -3.02,-1.59 9.49,-16.54 25.85,-26.99 42.54,-35.42 12.02,-6.07 28.57,-16.13 42.89,-17.21 l -0.2,-1.18 c -2.94,-17.35 -6.36,-34.62 -10.06,-51.82 -33.19,8.34 -54.64,32.92 -78.76,55.93 -1.67,1.6 -4.3,-0.84 -2.63,-2.47 24.57,-24.19 46.15,-49.56 80.29,-58.51 -3.06,-13.99 -6.32,-27.96 -9.7,-41.88 -28.26,7.9 -56.24,27.96 -74.52,51 -1.3,1.64 -3.57,-0.58 -2.34,-2.2 19,-25 46.4,-43.87 75.56,-54.2 -3.67,-14.95 -7.47,-29.86 -11.3,-44.77 -29.04,4.42 -51.41,22.6 -69.29,45.58 l -0.96,-0.72 c 15.89,-22.11 39.92,-47.64 68.84,-50.32 -1.23,-4.75 -2.45,-9.51 -3.68,-14.26 -0.74,-2.86 -1.51,-5.77 -2.31,-8.71 -21.89,6.44 -42.21,14.3 -60.28,29.06 l -0.61,-0.8 c 17.17,-15.46 37.73,-25.88 59.7,-32.64 -2.44,-8.95 -5.01,-18.15 -7.56,-27.53 -5.43,2.53 -10.68,5.3 -16.62,7.08 -10.89,3.26 -17.94,10.17 -27.42,15.86 l -0.98,-1.27 c 8.33,-5.43 14.17,-12.42 23.67,-15.99 7.03,-2.66 13.66,-6.03 20.46,-9.05 -9.98,-37.2 -18.81,-76.74 -14.03,-112.44 1.07,-7.92 14.35,-10.02 16.41,-1.59 6.3,25.88 5.98,53.53 8.92,79.99" style="fill:#7070c0;fill-opacity:1;fill-rule:nonzero;stroke:none" id="path290"/>
      <g id="g292">
        <g id="g294" clip-path="url(#clipPath298)">
          <path d="m 3583.28,1651.69 c 19.59,-82.72 84.12,-209.09 -6.24,-275.95 -24.33,-18 -58.98,-11.44 -84.56,2.64 -33.46,18.42 -65.9,75.3 -81.29,109.31 -12.21,26.95 -16.98,61.11 -26.63,89.53 -10.43,30.7 -21.47,61.19 -31.66,91.97 -36.71,110.96 -22.79,224.75 45.74,320.58 23.27,-31.2 53.3,-52.8 83.21,-79.23 13.62,-12.05 27,-25.24 38.67,-39.08 20.67,-24.53 24.68,-57.16 30.36,-87.22 8.41,-44.44 21.98,-88.51 32.4,-132.55" style="fill:url(#linearGradient304);fill-opacity:1;fill-rule:nonzero;stroke:none" id="path306"/>
        </g>
      </g>
      <path d="m 3561.33,1365.33 c -2.25,6.66 -4.41,13.36 -6.53,20.08 11.93,5.58 21.19,18.14 28.78,28 13.19,17.09 21.25,36.54 28.48,56.71 0.38,1.07 -1.4,1.69 -1.87,0.67 -8.29,-17.76 -17.24,-35.4 -29.93,-50.5 -7.07,-8.41 -17.07,-21.42 -27.57,-27.95 -2.48,8.05 -4.82,16.13 -7.07,24.23 11.7,7.31 19.29,20.76 26.9,31.91 12.94,18.93 21.93,39.81 31.71,60.45 l -0.35,0.18 c -16.15,-29.05 -31.58,-66.9 -59.85,-86.78 -2.75,10.19 -5.4,20.4 -7.77,30.66 l -0.36,1.61 c 31.48,25.64 42.6,64.88 59.39,100.23 l -0.86,0.53 c -17.17,-33.43 -31.35,-69.06 -59.91,-94.69 -3.34,14.71 -6.54,29.43 -9.72,44.14 26.76,26.96 43.74,57.89 54.04,94.75 l -0.95,0.33 c -12.04,-35.19 -31.27,-61.13 -54.45,-88.77 -3.15,14.57 -6.32,29.12 -9.67,43.65 10.78,13.37 23.52,24.39 32.23,39.43 8.58,14.83 15.05,30.78 17.07,47.86 l -1.39,0.19 c -5.98,-34.4 -29.45,-55.16 -49.42,-81.08 -3.18,13.51 -6.54,26.97 -10.17,40.39 21.82,29.82 46.73,59.63 48.94,98.33 l -0.6,0.09 c -4.37,-36.64 -29.45,-63.22 -50.19,-91.72 -0.67,2.38 -1.28,4.77 -1.97,7.15 -3.56,12.35 -7.25,24.67 -10.98,36.97 13.73,14.61 25.36,31.61 35.93,48.56 7.5,12.02 15.76,24.33 17.69,38.62 l -1.39,0.24 c -5.23,-29.87 -33.63,-58.94 -53.84,-82.08 -3.77,12.43 -7.55,24.84 -11.31,37.26 20.28,30.24 49.11,55.17 52.15,94.06 0.09,1.16 -1.64,1.37 -1.79,0.22 -4.91,-36.52 -32.56,-59.94 -52.12,-88.48 -2.33,7.71 -4.63,15.41 -6.9,23.13 25.28,25.41 48.86,67.46 52.1,102.52 0.19,1.93 -2.67,2.32 -2.98,0.4 -5.14,-31.83 -25.86,-73.46 -50.88,-96.77 -3.65,12.52 -7.19,25.07 -10.53,37.67 l -0.03,1.25 c 11.82,10.4 20.86,26.37 29.29,39.16 10.15,15.43 19,31.99 21.14,50.56 0.23,2.06 -3.05,2.33 -3.2,0.26 -2.3,-30.49 -26.91,-61.67 -49.23,-83.29 -1.19,4.61 -2.41,9.22 -3.54,13.85 -1.69,6.93 -3.35,13.87 -5,20.81 7.39,12.6 19.55,22.64 26.79,35.69 6.3,11.33 10.73,23.52 14.95,35.75 0.42,1.21 -1.38,1.95 -1.87,0.74 -6.21,-15.53 -12.93,-30.76 -23.01,-44.21 -5.65,-7.53 -13.15,-13.81 -18.37,-21.61 -2.7,11.36 -5.4,22.7 -8.21,34.02 l 0.36,0.27 0.42,0.1 1.53,1.39 c 13.08,10.64 18.48,28.67 23.37,44.18 l -0.56,0.21 c -5.96,-14.53 -12.85,-30.75 -24.91,-41.41 l -0.18,-0.01 -1.14,-0.33 c -2.3,9.2 -4.71,18.38 -7.23,27.51 0.97,0.69 1.48,2.04 0.73,3 5.4,8.92 9.41,18.96 13.04,28.66 l -1.11,0.47 c -4.17,-9.25 -8.74,-17.4 -14.55,-25.39 -5.39,18.79 -11.44,37.41 -18.74,55.65 -0.67,1.69 -3.17,0.55 -2.57,-1.14 6.42,-17.84 11.83,-35.95 16.74,-54.19 -13.17,6.91 -27.41,13.72 -38.12,23.67 l -0.9,-0.79 c 5.98,-6.49 13.31,-11.19 20.64,-16.03 6.55,-4.33 12.83,-10 20.09,-13.17 2.58,-9.82 5,-19.69 7.33,-29.57 -10.67,-3.03 -20.66,-5.39 -32.22,-2.01 -14.14,4.13 -25.43,13.44 -32.6,26.26 -0.89,1.57 -3.46,0.37 -2.55,-1.19 6.88,-11.83 17.21,-21.17 29.94,-26.44 13.4,-5.55 25.27,-3.78 38.39,-0.68 2.67,-11.44 5.26,-22.88 7.82,-34.35 -11.55,1.2 -23.23,4.38 -34.38,7.07 -18,4.36 -31.61,13.34 -48.5,19.82 -1.69,0.64 -2.76,-1.93 -1.07,-2.6 15.96,-6.39 28.9,-15.31 45.81,-19.87 12.17,-3.26 26.1,-7.97 39.06,-8.55 l 0.4,-1.82 -0.2,-0.46 c -0.44,-1.15 0.06,-2 0.85,-2.43 2.44,-10.97 4.89,-21.96 7.44,-32.92 l 0.49,-2.05 c -28.17,-0.18 -71.47,2.13 -87.09,27.65 -1.49,2.42 -4.98,-0.07 -3.17,-2.42 21.07,-27.29 60.87,-25.2 91.69,-31.08 2.99,-12.35 6.16,-24.64 9.53,-36.88 -17.4,-1.82 -34.64,-2.08 -51.89,2.08 -15.7,3.77 -37.01,7.21 -48.74,18.92 l -0.54,-0.59 c 11.31,-11.81 30.33,-14.68 45.36,-19.33 19.08,-5.9 37.62,-9.81 57.14,-6.63 l 0.66,-1.54 c 2.17,-7.75 4.38,-15.48 6.63,-23.21 -29.21,-10.95 -78.65,-7.91 -102.99,6.71 l -0.09,-0.17 c 17.4,-11.7 36.7,-14.3 57.29,-14.76 15.39,-0.34 32.31,-1.34 46.97,4.2 4.18,-14.29 8.44,-28.55 12.66,-42.83 -14.35,-1.14 -28.34,-4.99 -42.7,-5.78 -21.36,-1.17 -41.13,5.37 -59.13,16.35 -1.09,0.66 -2.32,-0.89 -1.22,-1.61 33.98,-21.95 66.3,-17.97 104.62,-14.28 3.46,-11.72 6.85,-23.46 10.12,-35.23 -29.33,-7.38 -71.81,-7.16 -96.33,9.9 -1.8,1.25 -3.86,-1.46 -2.07,-2.73 15.6,-10.98 34.84,-13.55 53.52,-14.15 13.46,-0.43 32.71,-2.57 46.14,2.5 l 0.33,-1.15 c 4.66,-16.97 8.84,-34.07 12.74,-51.23 -33.61,-6.45 -63.43,6.78 -95,17.47 -2.2,0.74 -3.55,-2.58 -1.34,-3.36 32.48,-11.55 62.75,-25.45 97.48,-19.14 3.14,-13.99 6.08,-28.02 8.89,-42.07 -28.96,-4.76 -62.79,1.61 -89.08,14.78 -1.87,0.94 -3,-2.04 -1.2,-2.99 27.78,-14.63 60.57,-20.18 91.37,-17.24 2.99,-15.1 5.84,-30.23 8.65,-45.35 -28.19,-8.25 -56.14,-1.21 -82.05,12.07 l -0.55,-1.06 c 23.73,-13.33 56.29,-26.33 83.63,-16.55 0.9,-4.83 1.79,-9.66 2.68,-14.49 0.54,-2.91 1.07,-5.88 1.59,-8.87 -22.57,-3.4 -44.31,-4.85 -66.92,0.9 l -0.21,-0.98 c 22.09,-6.77 45.12,-7.54 67.9,-4.39 1.56,-9.14 3.11,-18.58 4.76,-28.15 -5.98,0 -11.92,0.3 -18.05,-0.59 -11.25,-1.64 -20.56,1.64 -31.57,2.8 -1,0.11 -1.37,-1.42 -0.34,-1.56 9.84,-1.42 18.09,-5.29 28.22,-4.52 7.49,0.56 14.92,0.3 22.35,0.44 6.65,-37.93 15.33,-77.5 34.75,-107.86 4.3,-6.72 17.23,-3.02 15.53,5.48 -5.2,26.13 -17.17,51.06 -25.65,76.28" style="fill:#7070c0;fill-opacity:1;fill-rule:nonzero;stroke:none" id="path308"/>
      <g id="g310">
        <g id="g312" clip-path="url(#clipPath316)">
          <path d="m 3774.17,1715.8 c 4.65,-105.1 53.85,-273.67 -71.48,-334.01 -33.76,-16.25 -74.36,-0.27 -102.19,22.77 -36.42,30.15 -62.69,106.81 -73.53,151.71 -8.59,35.59 -6.49,78.22 -11.64,115.01 -5.56,39.74 -11.93,79.36 -17.19,119.15 -18.93,143.38 24.33,278.5 129.83,379.12 21.07,-43.31 52.58,-76.52 82.8,-115.59 13.79,-17.8 26.99,-36.92 37.98,-56.45 19.45,-34.6 16.76,-75.21 16.71,-113.06 -0.06,-55.96 6.23,-112.69 8.71,-168.65" style="fill:url(#linearGradient322);fill-opacity:1;fill-rule:nonzero;stroke:none" id="path324"/>
        </g>
      </g>
      <path d="m 3681.17,1372.77 c -1.18,8.62 -2.26,17.26 -3.28,25.91 15.79,4.03 29.96,17.16 41.48,27.37 19.98,17.73 34.29,39.52 47.74,62.35 0.71,1.22 -1.31,2.38 -2.12,1.26 -14.19,-19.68 -29.16,-39.05 -48.07,-54.46 -10.54,-8.59 -25.71,-22.1 -40,-27.59 -1.14,10.35 -2.13,20.71 -2.98,31.09 15.92,6.16 28.26,20.77 40.09,32.55 20.11,20.02 35.88,43.33 52.54,66.15 l -0.39,0.31 c -26.35,-31.59 -53.87,-74.03 -92.83,-91.65 -1,13.02 -1.85,26.05 -2.35,39.08 l -0.07,2.04 c 44.22,23.88 66.8,69.01 95.41,108.09 l -0.92,0.84 c -28.63,-36.66 -54.12,-76.69 -94.76,-101.24 -0.65,18.66 -1.14,37.3 -1.59,55.92 38.76,26.56 66.56,60.24 87.62,102.67 l -1.07,0.62 c -22.79,-40 -52.17,-67.08 -86.75,-95.3 -0.45,18.44 -0.94,36.86 -1.64,55.28 16.19,13.77 34.23,24.22 48.3,40.49 13.86,16.05 25.43,33.94 31.83,54.23 0.35,1.06 -1.26,1.59 -1.65,0.55 -15.22,-40.42 -48.58,-60.24 -78.85,-87.12 -0.73,17.15 -1.69,34.3 -3.01,51.45 33.43,31.19 70.61,61.67 82.26,108.21 l -0.7,0.25 c -13.8,-43.54 -50.45,-70.04 -82.26,-99.89 -0.25,3.05 -0.45,6.1 -0.74,9.16 -1.47,15.84 -3.1,31.67 -4.77,47.49 20.06,14.58 38.13,32.56 54.91,50.71 11.9,12.88 24.8,25.93 30.45,42.85 0.35,1.07 -1.23,1.67 -1.63,0.62 -13.28,-35.1 -54.54,-63.88 -84.46,-87.32 -1.7,15.98 -3.43,31.95 -5.13,47.91 31.66,32.07 72.48,55.7 85.18,102.28 0.37,1.38 -1.68,2.05 -2.14,0.67 -14.41,-43.24 -53.45,-65.33 -83.84,-95.49 -1.04,9.91 -2.05,19.81 -3.02,29.72 36.61,25.03 75.01,70.69 87.08,112.56 0.66,2.3 -2.72,3.44 -3.55,1.18 -13.61,-37.51 -48.43,-83.32 -84.26,-105.86 -1.53,16.07 -2.93,32.14 -4.08,48.24 l 0.26,1.53 c 16.78,9.91 31.46,27.21 44.67,40.82 15.92,16.4 30.5,34.48 37.41,56.57 0.76,2.44 -3.18,3.52 -3.84,1.05 -9.84,-36.53 -46.97,-68.73 -79.12,-89.86 -0.38,5.89 -0.79,11.77 -1.09,17.67 -0.46,8.81 -0.87,17.63 -1.27,26.45 11.9,13.61 29.01,23 40.84,37.18 10.27,12.32 18.48,26.11 26.45,40 0.79,1.38 -1.23,2.69 -2.1,1.34 -11.14,-17.43 -22.84,-34.41 -38.22,-48.43 -8.6,-7.83 -19.18,-13.74 -27.34,-22 -0.64,14.42 -1.3,28.85 -2.09,43.25 l 0.48,0.24 0.55,0.03 c 1.05,0.06 1.75,0.61 2.18,1.33 18.36,9.9 29.1,30.59 38.64,48.3 l -0.63,0.38 c -10.61,-16.28 -22.74,-34.39 -39.88,-44.57 l -0.21,0.03 -1.47,-0.14 c -0.67,11.72 -1.46,23.43 -2.43,35.12 1.36,0.62 2.29,2.14 1.59,3.47 8.64,9.61 15.84,20.89 22.5,31.83 l -1.25,0.83 c -7.2,-10.28 -14.65,-19.13 -23.56,-27.5 -2.2,24.11 -5.25,48.13 -9.9,72 -0.43,2.2 -3.73,1.39 -3.38,-0.79 3.67,-23.19 6.04,-46.45 7.79,-69.76 -14.4,11.46 -30.14,23.03 -40.86,37.61 l -1.28,-0.75 c 5.78,-9.28 13.6,-16.69 21.38,-24.27 6.97,-6.78 13.29,-15.13 21.39,-20.67 0.85,-12.53 1.51,-25.08 2.07,-37.64 -13.7,-1.21 -26.38,-1.77 -39.65,5.01 -16.23,8.29 -27.81,22.23 -33.56,39.48 -0.71,2.11 -4.12,1.24 -3.37,-0.87 5.63,-15.97 16.02,-29.71 30.28,-39.06 15.01,-9.85 29.84,-10.45 46.51,-9.73 0.6,-14.51 1.1,-29.03 1.55,-43.56 -13.76,4.14 -27.22,10.7 -40.15,16.56 -20.88,9.46 -35.35,23.53 -54.38,35.31 -1.9,1.18 -3.8,-1.7 -1.9,-2.91 17.93,-11.45 31.59,-25.31 51.09,-34.74 14.03,-6.8 29.88,-15.76 45.5,-19.46 l 0.08,-2.29 -0.36,-0.51 c -0.8,-1.3 -0.38,-2.46 0.47,-3.15 0.42,-13.92 0.86,-27.85 1.42,-41.75 l 0.14,-2.61 c -34.3,6.3 -86.41,19.14 -99.48,53.77 -1.25,3.29 -6.08,1.07 -4.42,-2.2 19.29,-38.06 68.17,-44.73 104.28,-59.02 0.76,-15.69 1.78,-31.38 3.05,-47.04 -21.59,1.81 -42.6,5.5 -62.61,14.54 -18.21,8.22 -43.33,17.34 -54.88,34.3 l -0.79,-0.6 c 11.02,-16.97 33.48,-24.87 50.68,-33.99 21.83,-11.6 43.45,-20.65 67.92,-21.3 l 0.45,-2.02 c 0.85,-9.93 1.74,-19.84 2.68,-29.75 -38.04,-6.56 -97.44,8.58 -123.65,32 l -0.16,-0.19 c 18.46,-18.26 41.31,-25.88 66.24,-31.2 18.64,-3.98 38.98,-9.12 58.07,-5.77 1.78,-18.34 3.65,-36.68 5.49,-55.02 -17.73,1.95 -35.61,0.51 -53.25,2.88 -26.24,3.51 -48.76,16.04 -68.12,33.56 -1.16,1.05 -3.01,-0.55 -1.84,-1.67 36.23,-34.55 76.44,-37.21 123.88,-41.59 1.5,-15.05 2.89,-30.11 4.15,-45.18 -37.37,-2.18 -88.97,7.93 -114.82,34.34 -1.9,1.93 -5.04,-0.87 -3.15,-2.83 16.42,-16.96 39.21,-24.55 61.79,-29.59 16.26,-3.65 39.17,-10.7 56.67,-7.65 l 0.13,-1.48 c 1.74,-21.71 2.86,-43.46 3.63,-65.23 -42.34,-0.05 -75.54,22.95 -111.45,43.24 -2.49,1.41 -4.91,-2.31 -2.41,-3.78 36.82,-21.56 70.4,-45.46 114.09,-45.84 0.56,-17.72 0.89,-35.46 1.05,-53.2 -36.3,0.92 -75.96,16.49 -104.87,38.6 -2.05,1.57 -4.11,-1.78 -2.14,-3.36 30.38,-24.22 68.96,-38.56 107.09,-42.11 0.13,-19.06 0.1,-38.1 0.01,-57.14 -36.18,-3.5 -68.53,11.53 -96.95,33.67 l -0.93,-1.15 c 25.76,-21.71 62.34,-45.05 97.85,-39.5 -0.03,-6.07 -0.06,-12.15 -0.1,-18.23 -0.02,-3.66 -0.07,-7.39 -0.13,-11.15 -28.22,1.09 -54.99,4.36 -81.14,16.59 l -0.49,-1.14 c 25.3,-13.34 53.13,-19.61 81.54,-21.07 -0.22,-11.47 -0.51,-23.3 -0.72,-35.31 -7.28,1.39 -14.44,3.12 -22.1,3.45 -14.06,0.61 -24.61,6.76 -37.71,10.72 -1.2,0.36 -2,-1.4 -0.78,-1.82 11.63,-4 20.76,-10.61 33.24,-12.03 9.25,-1.04 18.22,-3.08 27.29,-4.63 -0.71,-47.67 0.7,-97.78 17.27,-139.17 3.67,-9.18 20.24,-7.67 20.16,3.06 -0.29,32.96 -9.07,66.05 -13.54,98.68" style="fill:#7070c0;fill-opacity:1;fill-rule:nonzero;stroke:none" id="path326"/>
      <path d="m 3843.35,1333.4 -4.64,-85.43 -7.26,-133.03 -11.9,-218.569 h -295.92 l -11.89,218.569 -7.27,133.03 -4.64,85.43 h 343.52" style="fill:#92a6b3;fill-opacity:1;fill-rule:nonzero;stroke:none" id="path328"/>
      <path d="m 3838.71,1247.97 -0.96,-17.13 -0.94,-17.73 -5.36,-98.17 h -319.71 l -5.36,98.17 -0.95,17.73 -0.96,17.13 h 334.24" style="fill:#a4b7c7;fill-opacity:1;fill-rule:nonzero;stroke:none" id="path330"/>
      <path d="m 3837.75,1230.84 -0.94,-17.73 h -330.43 l -0.95,17.73 h 332.32" style="fill:#92a6b3;fill-opacity:1;fill-rule:nonzero;stroke:none" id="path332"/>
      <path d="m 2601.04,320.52 c -4.32,-4.438 -8.03,-9.321 -11.09,-14.528 l -4.65,2.399 c -0.66,2.98 -3.48,5.031 -6.59,4.668 -3.3,-0.387 -5.67,-3.387 -5.28,-6.7 0.39,-3.308 3.39,-5.679 6.7,-5.3 l 1.83,0.531 4.51,-2.34 c -2.51,-5.539 -4.32,-11.391 -5.39,-17.441 l 7.46,-1.309 c 2.31,13.051 8.5,25.059 17.92,34.719 l -5.42,5.301" style="fill:#a4b7c7;fill-opacity:1;fill-rule:nonzero;stroke:none" id="path334"/>
      <path d="m 2655.92,343.539 c -1.71,0 -3.41,-0.059 -5.1,-0.18 l -0.73,6.27 c 1.87,1.48 2.96,3.891 2.65,6.441 -0.46,3.93 -4.02,6.739 -7.95,6.282 -3.93,-0.473 -6.74,-4.02 -6.28,-7.961 0.3,-2.532 1.89,-4.602 4.05,-5.629 l 0.73,-6.242 c -7.14,-1.161 -14.03,-3.321 -20.59,-6.469 l 3.27,-6.832 c 9.33,4.472 19.41,6.742 29.95,6.742 4.96,0 9.93,-0.539 14.74,-1.59 l 1.62,7.418 c -5.36,1.16 -10.86,1.75 -16.36,1.75" style="fill:#a4b7c7;fill-opacity:1;fill-rule:nonzero;stroke:none" id="path336"/>
      <path d="m 2721.94,318.059 c 3.31,0.41 5.67,3.41 5.26,6.73 -0.41,3.313 -3.42,5.66 -6.72,5.25 -3.1,-0.379 -5.36,-3.039 -5.3,-6.078 l -4.16,-3.641 c -4.18,4.301 -8.9,8.129 -14.09,11.391 l -4.03,-6.41 c 11.34,-7.153 20.21,-17.262 25.64,-29.262 l 6.9,3.133 c -2.51,5.547 -5.67,10.719 -9.42,15.449 l 4.02,3.508 1.9,-0.07" style="fill:#a4b7c7;fill-opacity:1;fill-rule:nonzero;stroke:none" id="path338"/>
      <path d="m 2650.44,241.449 c -3.86,-0.23 -7.74,-0.347 -11.57,-0.347 -8.8,0 -17.33,0.609 -24.79,1.789 -3.89,0.629 -8.45,1.55 -12.69,2.918 10.46,-18.598 30.69,-31.25 53.87,-31.25 28.56,0 52.63,19.16 59.51,45.043 -6.82,-4.493 -15.06,-8.25 -24.59,-11.223 -11.79,-3.68 -25.55,-6.078 -39.74,-6.93" style="fill:#a4b7c7;fill-opacity:1;fill-rule:nonzero;stroke:none" id="path340"/>
      <path d="m 2681.7,272.301 c -7.5,0 -13.6,6.109 -13.6,13.609 0,7.5 6.1,13.602 13.6,13.602 7.5,0 13.6,-6.102 13.6,-13.602 0,-7.5 -6.1,-13.609 -13.6,-13.609 z m -47.37,-9.082 c -10.21,0 -18.5,8.301 -18.5,18.5 0,10.203 8.29,18.492 18.5,18.492 10.19,0 18.49,-8.289 18.49,-18.492 0,-10.199 -8.3,-18.5 -18.49,-18.5 z m 21.59,65.152 c -33.53,0 -60.8,-26.66 -60.8,-59.43 0,-4.261 0.47,-8.492 1.37,-12.621 6.74,-4.832 27.06,-8.898 53.48,-7.308 28.79,1.73 52.97,9.57 66.72,21.59 -0.06,1.949 -0.21,3.898 -0.45,5.82 -3.81,29.617 -29.74,51.949 -60.32,51.949" style="fill:#a4b7c7;fill-opacity:1;fill-rule:nonzero;stroke:none" id="path342"/>
      <path d="m 2815.95,309.699 c -2.94,1.16 -8.05,3.09 -13.82,2.371 -5.51,-0.679 -8.44,-3.398 -8.44,-10.058 v -8.66 h 22.28 v -17.18 h -22.28 v -54.543 h -19.31 v 54.543 h -13.4 v 17.18 h 13.4 v 8.878 c 0,16.801 8.95,27.829 25.68,27.829 6.42,0 11.57,-1.219 15.9,-3.09 l -0.01,-17.27" style="fill:#a4b7c7;fill-opacity:1;fill-rule:nonzero;stroke:none" id="path344"/>
      <path d="m 2862.98,276.379 c -1.77,0.301 -3.58,0.473 -5.27,0.473 -8.95,0 -15.09,-5.481 -15.09,-16.153 v -39.07 h -19.32 v 71.723 h 18.72 V 285.5 c 4.52,6.742 11.41,9.77 20.22,9.77 4.14,0 8.47,-1.282 10.93,-3.372 l -10.19,-15.519" style="fill:#a4b7c7;fill-opacity:1;fill-rule:nonzero;stroke:none" id="path346"/>
      <path d="m 2888.51,264.262 h 31.74 c -1.76,9.179 -7.32,14.359 -15.61,14.359 -9.1,0 -14.43,-5.48 -16.13,-14.359 z m 51.14,-6.66 c 0,-2.223 -0.15,-4.891 -0.37,-6.52 h -50.84 c 2.07,-10.363 9.32,-14.871 18.43,-14.871 6.21,0 12.94,2.508 18.12,6.891 l 11.33,-12.454 c -8.15,-7.468 -18.51,-10.867 -30.57,-10.867 -21.98,0 -37.22,14.949 -37.22,37.52 0,22.57 14.8,37.969 36.26,37.969 20.65,0 34.79,-15.321 34.86,-37.668" style="fill:#a4b7c7;fill-opacity:1;fill-rule:nonzero;stroke:none" id="path348"/>
      <path d="m 2965.04,264.262 h 31.75 c -1.77,9.179 -7.33,14.359 -15.62,14.359 -9.1,0 -14.43,-5.48 -16.13,-14.359 z m 51.14,-6.66 c 0,-2.223 -0.14,-4.891 -0.37,-6.52 h -50.85 c 2.08,-10.363 9.33,-14.871 18.44,-14.871 6.21,0 12.95,2.508 18.13,6.891 l 11.32,-12.454 c -8.14,-7.468 -18.5,-10.867 -30.56,-10.867 -21.99,0 -37.23,14.949 -37.23,37.52 0,22.57 14.8,37.969 36.26,37.969 20.65,0 34.79,-15.321 34.86,-37.668" style="fill:#a4b7c7;fill-opacity:1;fill-rule:nonzero;stroke:none" id="path350"/>
      <path d="m 3042.87,257.52 c 0,-11.321 7.47,-19.758 18.43,-19.758 11.4,0 18.5,8.808 18.5,19.758 0,10.96 -7.1,19.769 -18.5,19.769 -10.96,0 -18.43,-8.437 -18.43,-19.769 z m 56.77,0 c 0,-21.528 -14.95,-37.739 -34.72,-37.739 -9.62,0 -16.42,3.77 -21.08,9.321 V 192.02 h -19.25 v 101.332 h 18.88 v -7.922 c 4.66,5.851 11.54,9.84 21.38,9.84 19.84,0 34.79,-16.211 34.79,-37.75" style="fill:#a4b7c7;fill-opacity:1;fill-rule:nonzero;stroke:none" id="path352"/>
      <path d="m 3128.09,221.629 h -19.32 v 71.723 h 19.32 z m 2.58,95.18 c 0,-6.957 -5.4,-12.289 -12.36,-12.289 -6.95,0 -12.28,5.332 -12.28,12.289 0,6.961 5.33,12.441 12.28,12.441 6.96,0 12.36,-5.48 12.36,-12.441" style="fill:#a4b7c7;fill-opacity:1;fill-rule:nonzero;stroke:none" id="path354"/>
      <path d="m 3160.32,267.809 27.01,25.543 h 23.7 l -34.8,-33.75 35.01,-37.973 h -23.76 l -27.16,29.012 v -29.012 h -19.31 v 106.57 h 19.31 v -60.39" style="fill:#a4b7c7;fill-opacity:1;fill-rule:nonzero;stroke:none" id="path356"/>
      <path d="m 1844.12,241.461 v 32.078 c -3.95,6.16 -12.44,11.43 -21.24,11.43 -14.2,0 -22.7,-11.719 -22.7,-27.387 0,-15.684 8.5,-27.25 22.7,-27.25 8.8,0 17.29,4.977 21.24,11.129 z m 0,-19.18 v 10.539 c -5.27,-7.179 -13.91,-12.3 -23.88,-12.3 -18.45,0 -31.48,14.062 -31.48,37.062 0,22.559 12.89,37.207 31.48,37.207 9.54,0 18.17,-4.687 23.88,-12.457 v 37.648 h 11 v -97.699 h -11" style="fill:#a4b7c7;fill-opacity:1;fill-rule:nonzero;stroke:none" id="path358"/>
      <path d="m 1904.03,285.699 c -15.08,0 -22.56,-12.738 -23.14,-23.578 h 46.43 c -0.14,10.551 -7.17,23.578 -23.29,23.578 z m -34.71,-27.98 c 0,20.511 14.64,37.07 34.86,37.07 21.39,0 33.98,-16.699 33.98,-37.937 v -2.793 h -57.27 c 0.88,-13.329 10.25,-24.457 25.49,-24.457 8.05,0 16.26,3.218 21.82,8.937 l 5.28,-7.18 c -7.03,-7.027 -16.56,-10.839 -28.13,-10.839 -20.95,0 -36.03,15.089 -36.03,37.199" style="fill:#a4b7c7;fill-opacity:1;fill-rule:nonzero;stroke:none" id="path360"/>
      <path d="m 1946.07,231.648 5.72,7.911 c 4.68,-5.418 13.62,-10.11 23.28,-10.11 10.84,0 16.71,5.133 16.71,12.16 0,17.141 -43.8,6.59 -43.8,32.813 0,10.988 9.51,20.367 26.36,20.367 12.01,0 20.51,-4.551 26.22,-10.258 l -5.13,-7.621 c -4.24,5.129 -12.01,8.942 -21.09,8.942 -9.67,0 -15.68,-4.832 -15.68,-11.133 0,-15.528 43.8,-5.278 43.8,-32.821 0,-11.859 -9.52,-21.378 -27.83,-21.378 -11.56,0 -21.39,3.511 -28.56,11.128" style="fill:#a4b7c7;fill-opacity:1;fill-rule:nonzero;stroke:none" id="path362"/>
      <path d="m 2016.67,222.281 v 70.75 h 10.99 v -70.75 z m -1.9,88.18 c 0,4.098 3.36,7.469 7.32,7.469 4.1,0 7.47,-3.371 7.47,-7.469 0,-4.102 -3.37,-7.332 -7.47,-7.332 -3.96,0 -7.32,3.23 -7.32,7.332" style="fill:#a4b7c7;fill-opacity:1;fill-rule:nonzero;stroke:none" id="path364"/>
      <path d="m 2097.09,242.641 v 30.898 c -3.81,6.16 -12.3,11.43 -21.09,11.43 -14.21,0 -22.71,-11.278 -22.71,-26.949 0,-15.532 8.5,-26.961 22.71,-26.961 8.79,0 17.28,5.421 21.09,11.582 z m -51.27,-38.532 5.57,8.2 c 5.86,-7.028 12.89,-9.657 22.99,-9.657 11.72,0 22.71,5.707 22.71,21.239 v 10.097 c -5.13,-7.168 -13.77,-12.586 -23.73,-12.586 -18.46,0 -31.49,13.77 -31.49,36.618 0,22.699 12.89,36.769 31.49,36.769 9.52,0 18.02,-4.687 23.73,-12.457 v 10.699 h 10.99 v -68.699 c 0,-23.441 -16.41,-30.773 -33.7,-30.773 -12.01,0 -20.21,2.351 -28.56,10.55" style="fill:#a4b7c7;fill-opacity:1;fill-rule:nonzero;stroke:none" id="path366"/>
      <path d="m 2174.13,222.281 v 46.278 c 0,12.461 -6.3,16.41 -15.82,16.41 -8.64,0 -16.85,-5.27 -20.95,-10.989 v -51.699 h -10.98 v 70.75 h 10.98 V 282.77 c 4.98,5.859 14.65,12.019 25.2,12.019 14.79,0 22.56,-7.48 22.56,-22.859 v -49.649 h -10.99" style="fill:#a4b7c7;fill-opacity:1;fill-rule:nonzero;stroke:none" id="path368"/>
      <path d="m 2234.04,285.699 c -15.08,0 -22.56,-12.738 -23.14,-23.578 h 46.43 c -0.14,10.551 -7.17,23.578 -23.29,23.578 z m -34.71,-27.98 c 0,20.511 14.64,37.07 34.86,37.07 21.39,0 33.98,-16.699 33.98,-37.937 v -2.793 h -57.27 c 0.88,-13.329 10.25,-24.457 25.49,-24.457 8.05,0 16.26,3.218 21.82,8.937 l 5.28,-7.18 c -7.03,-7.027 -16.56,-10.839 -28.13,-10.839 -20.95,0 -36.03,15.089 -36.03,37.199" style="fill:#a4b7c7;fill-opacity:1;fill-rule:nonzero;stroke:none" id="path370"/>
      <path d="m 2333.5,241.461 v 32.078 c -3.96,6.16 -12.46,11.43 -21.24,11.43 -14.21,0 -22.7,-11.719 -22.7,-27.387 0,-15.684 8.49,-27.25 22.7,-27.25 8.78,0 17.28,4.977 21.24,11.129 z m 0,-19.18 v 10.539 c -5.28,-7.179 -13.92,-12.3 -23.88,-12.3 -18.46,0 -31.49,14.062 -31.49,37.062 0,22.559 12.89,37.207 31.49,37.207 9.52,0 18.17,-4.687 23.88,-12.457 v 37.648 h 10.98 v -97.699 h -10.98" style="fill:#a4b7c7;fill-opacity:1;fill-rule:nonzero;stroke:none" id="path372"/>
      <path d="m 2428.99,230.332 c 14.37,0 22.87,11.566 22.87,27.25 0,15.668 -8.5,27.387 -22.87,27.387 -8.63,0 -17.27,-5.27 -21.09,-11.43 v -32.078 c 3.82,-6.152 12.46,-11.129 21.09,-11.129 z m -32.07,-8.051 v 97.699 h 10.98 v -37.648 c 5.72,7.77 14.21,12.457 23.89,12.457 18.44,0 31.48,-14.648 31.48,-37.207 0,-23 -13.04,-37.062 -31.48,-37.062 -9.96,0 -18.61,5.121 -23.89,12.3 v -10.539 h -10.98" style="fill:#a4b7c7;fill-opacity:1;fill-rule:nonzero;stroke:none" id="path374"/>
      <path d="m 2475.28,204.551 c 1.61,-0.731 4.25,-1.172 6.01,-1.172 4.83,0 8.06,1.609 10.55,7.473 l 4.68,10.687 -29.59,71.492 h 11.87 l 23.58,-58.011 23.44,58.011 h 12.01 l -35.45,-85.109 c -4.25,-10.25 -11.42,-14.211 -20.8,-14.363 -2.34,0 -6,0.441 -8.05,1.031 l 1.75,9.961" style="fill:#a4b7c7;fill-opacity:1;fill-rule:nonzero;stroke:none" id="path376"/>
    </g>
  </g>
</svg>