<svg xmlns="http://www.w3.org/2000/svg" class="svg-icon" style="width: 1em; height: 1em;vertical-align: middle;fill: currentColor;overflow: hidden;" viewBox="0 0 1024 1024" version="1.1"><path d="M800 224h-80V167.68A135.68 135.68 0 0 0 584.32 32h-144.64A135.68 135.68 0 0 0 304 167.68V224H224a192 192 0 0 0-192 192v384a192 192 0 0 0 192 192h576a192 192 0 0 0 192-192V416a192 192 0 0 0-192-192zM400 167.68A39.68 39.68 0 0 1 439.68 128h144.64a39.68 39.68 0 0 1 39.68 39.68V224h-224zM768 832H256a48 48 0 0 1 0-96h512a48 48 0 0 1 0 96z m0-160H256a48 48 0 0 1 0-96h512a48 48 0 0 1 0 96z m0-160H256a48 48 0 0 1 0-96h512a48 48 0 0 1 0 96z" fill="#FFF"/></svg>