<svg  viewBox="0 0 78 45" fill="none" xmlns="http://www.w3.org/2000/svg">
<path d="M38.9796 14.8614C39.6073 14.8614 40.1534 14.6339 40.6038 14.1839C41.0542 13.7346 41.2829 13.1762 41.2829 12.5251C41.2829 11.874 41.0549 11.3549 40.6045 10.9049H40.6038C40.1527 10.4549 39.6065 10.2274 38.9796 10.2274C38.3527 10.2274 37.7672 10.4549 37.3168 10.9049C36.8665 11.3541 36.6377 11.8997 36.6377 12.5259C36.6377 13.152 36.8665 13.7361 37.3161 14.1839C37.7658 14.6339 38.3255 14.8614 38.9796 14.8614Z" fill="#3586FF"/>
<path d="M27.2179 16.961C27.0149 16.8447 27.0549 16.5409 27.2808 16.4817C27.9363 16.3084 28.7906 16.1373 29.7871 16.0766C33.9269 15.8235 36.1795 17.7383 38.3756 18.0236C40.7432 18.3316 44.3133 16.9117 49.5018 9.06635C49.0671 11.1245 48.4388 13.2825 47.5502 15.4926C43.4683 25.6386 35.8113 32.0798 29.8943 35.841C29.3532 36.1847 28.7506 35.4994 29.1645 35.0102C32.5301 31.0293 33.6546 26.1621 32.1297 22.3082C31.0188 19.5005 28.7384 17.8296 27.2179 16.9617V16.961Z" fill="#3586FF"/>
<mask id="mask0_77_8576" style="mask-type:luminance" maskUnits="userSpaceOnUse" x="27" y="9" width="23" height="27">
<path d="M27.2179 16.961C27.0149 16.8447 27.0549 16.5409 27.2808 16.4817C27.9363 16.3084 28.7906 16.1373 29.7871 16.0766C33.9269 15.8235 36.1795 17.7383 38.3756 18.0236C40.7432 18.3316 44.3133 16.9117 49.5018 9.06635C49.0671 11.1245 48.4388 13.2825 47.5502 15.4926C43.4683 25.6386 35.8113 32.0798 29.8943 35.841C29.3532 36.1847 28.7506 35.4994 29.1645 35.0102C32.5301 31.0293 33.6546 26.1621 32.1297 22.3082C31.0188 19.5005 28.7384 17.8296 27.2179 16.9617V16.961Z" fill="white"/>
</mask>
<!-- <g mask="url(#mask0_77_8576)">
<path d="M24.4943 17.1314C24.7609 17.7939 27.8856 15.9754 32.1262 17.4316C36.251 18.8487 36.3253 21.61 39.959 22.5407C44.4413 23.6888 48.6139 20.5838 49.198 20.1366C49.7098 19.7444 53.4222 16.8026 53.9176 11.7214C54.072 10.1339 54.3286 7.50667 53.014 6.11103C48.1171 0.913562 23.7494 15.2786 24.4943 17.1307V17.1314Z" fill="#73B3FF"/>
<path d="M8.22595 35.8652C8.49259 36.5277 11.6173 34.7092 15.8579 36.1655C19.9827 37.5825 20.057 40.3438 23.6907 41.2745C28.1729 42.4227 32.3456 39.3176 32.9297 38.8704C33.4415 38.4782 37.1538 35.5365 37.6493 30.4552C37.8037 28.8678 38.0603 26.2405 36.7457 24.8449C31.8488 19.6474 7.48105 34.0124 8.22595 35.8645V35.8652Z" fill="#005DCC"/>
</g> -->
<path d="M25.9319 19.4776C25.2027 18.2289 24.1976 17.2262 22.9452 16.4981C21.6898 15.7692 20.3001 15.3998 18.8154 15.3998C17.7402 15.3998 16.7236 15.5959 15.7943 15.9839C15.3082 16.1864 14.8543 16.4439 14.4361 16.7534V12.411C14.4361 10.616 12.972 9.15546 11.1727 9.15546H10.5593V35.9344H11.1727C12.972 35.9344 14.4361 34.4738 14.4361 32.6788V23.599C14.4361 22.8081 14.6284 22.0942 15.0244 21.4167C15.4154 20.7471 15.9552 20.2093 16.6271 19.8171C17.307 19.422 18.0226 19.2302 18.8146 19.2302C19.6067 19.2302 20.313 19.4213 20.9785 19.815C21.6398 20.2072 22.1745 20.7456 22.567 21.4167C22.9573 22.0856 23.1553 22.8195 23.1553 23.599V35.9351H23.7687C25.568 35.9351 27.0321 34.4746 27.0321 32.6795V23.5997C27.0321 22.1185 26.6618 20.7321 25.9312 19.4798L25.9319 19.4776Z" fill="#003968"/>
<path d="M59.3248 17.023C57.9401 15.9454 56.3402 15.3991 54.5694 15.3991C53.4357 15.3991 52.3412 15.6373 51.3175 16.1066L51.2324 16.1486C49.9557 16.7577 48.9084 17.6898 48.1192 18.9185C47.3285 20.1501 46.9275 21.5308 46.9275 23.0227V35.9329H47.5408C49.3223 35.9329 50.7656 34.4924 50.7656 32.7159V23.0227C50.7656 21.9815 51.1338 21.1079 51.8915 20.352C52.6493 19.596 53.525 19.2287 54.5687 19.2287C55.0691 19.2287 55.5817 19.3407 56.0914 19.5611C56.2694 19.6381 56.4731 19.6267 56.6411 19.5304L60.0453 17.5828L59.3248 17.0222V17.023Z" fill="#003968"/>
<path d="M64.3439 14.8614C64.9715 14.8614 65.5177 14.6339 65.968 14.1839C66.4184 13.7346 66.6472 13.1762 66.6472 12.5251C66.6472 11.874 66.4191 11.3549 65.9688 10.9049H65.968C65.517 10.4549 64.9708 10.2274 64.3439 10.2274C63.7169 10.2274 63.1314 10.4549 62.6811 10.9049C62.2307 11.3541 62.002 11.8997 62.002 12.5259C62.002 13.152 62.2307 13.7361 62.6804 14.1839C63.13 14.6339 63.6898 14.8614 64.3439 14.8614Z" fill="#003968"/>
<path d="M62.9991 15.5525H62.3857V35.933H62.9991C64.7984 35.933 66.2625 34.4725 66.2625 32.6775V18.808C66.2625 17.013 64.7984 15.5525 62.9991 15.5525Z" fill="#003968"/>
</svg>
