<?xml version="1.0" encoding="UTF-8"?>
<svg version="1.1" xmlns="http://www.w3.org/2000/svg" width="500" height="500">
<path d="M0 0 C165 0 330 0 500 0 C500 165 500 330 500 500 C335 500 170 500 0 500 C0 335 0 170 0 0 Z " fill="#F5F3EF" transform="translate(0,0)"/>
<path d="M0 0 C6.93 0 13.86 0 21 0 C20.34 3.63 19.68 7.26 19 11 C20.423125 10.030625 21.84625 9.06125 23.3125 8.0625 C28.32876691 4.64562254 31.7910114 3.82717533 37.875 3.75 C39.08929688 3.72421875 40.30359375 3.6984375 41.5546875 3.671875 C46.43352366 4.13652606 48.91567838 5.82273652 52.1875 9.375 C57.29253643 16.76850104 56.98808587 25.26447032 55.5 33.90234375 C54.78779561 36.65808914 53.94092027 39.31382439 53 42 C52.6596875 43.01578125 52.319375 44.0315625 51.96875 45.078125 C48.88692851 53.69889594 44.6724815 61.15973443 40 69 C33.07 69 26.14 69 19 69 C20.4601324 65.349669 21.68379515 62.76733924 23.75 59.5625 C29.57776464 50.02096378 35.40569851 38.43078956 35.125 27.0625 C35.10695313 26.10472656 35.08890625 25.14695313 35.0703125 24.16015625 C35.04710937 23.44730469 35.02390625 22.73445313 35 22 C30.29300559 21.52930056 26.38992621 21.14437129 22.5625 24.25 C18.46507849 28.64723284 17.67988108 31.61321084 17.796875 37.47265625 C18.14014663 41.74374748 19.05864529 45.82273845 20 50 C14.39 50 8.78 50 3 50 C0.13773165 39.07133901 -2.15700332 28.63453553 -2.25 17.3125 C-2.25926514 16.62389893 -2.26853027 15.93529785 -2.27807617 15.22583008 C-2.24455485 9.70664239 -1.25192313 5.63365408 0 0 Z " fill="#040404" transform="translate(294,213)"/>
<path d="M0 0 C1.42002108 6.7831364 2.22731216 13.06697907 2 20 C-1.37097383 21.49821059 -3.20442119 22 -7 22 C-6.7834375 22.5878125 -6.566875 23.175625 -6.34375 23.78125 C-4.0214178 31.26432042 -3.69706265 38.3266611 -3.6875 46.125 C-3.67976563 47.64383789 -3.67976563 47.64383789 -3.671875 49.19335938 C-3.77907535 60.96242596 -5.59103202 71.92754855 -13.7734375 80.95703125 C-17.97274009 84.72540104 -21.51248713 87.09386841 -27.3125 86.875 C-36.66602585 84.65551929 -44.41528201 79.18637097 -49.8125 71.1875 C-55.44119693 61.18515342 -55.63901586 51.20735512 -55 40 C-54.67 39.34 -54.34 38.68 -54 38 C-48.06 38 -42.12 38 -36 38 C-36.05800781 39.32773438 -36.11601562 40.65546875 -36.17578125 42.0234375 C-36.96483196 55.90616125 -36.96483196 55.90616125 -31 68 C-28.92703398 69.24625519 -28.92703398 69.24625519 -27 70 C-22.32835035 63.45969049 -20.62315905 58.07294788 -20.6875 50.0625 C-20.69313965 49.32104736 -20.6987793 48.57959473 -20.70458984 47.81567383 C-20.95006176 36.40609052 -23.21300752 26.35319083 -28.79296875 16.29296875 C-30 14 -30 14 -30 12 C-29.32420898 11.70754395 -28.64841797 11.41508789 -27.95214844 11.11376953 C-24.8842633 9.78533627 -21.81712516 8.4551869 -18.75 7.125 C-17.68652344 6.66480469 -16.62304688 6.20460937 -15.52734375 5.73046875 C-14.50253906 5.28574219 -13.47773438 4.84101563 -12.421875 4.3828125 C-11.47924805 3.97434082 -10.53662109 3.56586914 -9.56542969 3.14501953 C-7.96889004 2.43244141 -6.39083357 1.67467803 -4.84863281 0.85107422 C-3 0 -3 0 0 0 Z " fill="#040404" transform="translate(228,186)"/>
<path d="M0 0 C1.87939453 -0.34057617 1.87939453 -0.34057617 4.1328125 -0.29296875 C4.93847656 -0.28330078 5.74414062 -0.27363281 6.57421875 -0.26367188 C7.83685547 -0.2259668 7.83685547 -0.2259668 9.125 -0.1875 C9.97449219 -0.17396484 10.82398438 -0.16042969 11.69921875 -0.14648438 C13.79974837 -0.11108219 15.89995293 -0.05727401 18 0 C17.608125 1.11375 17.21625 2.2275 16.8125 3.375 C14.20917514 11.14742662 12.15742878 19.09511272 10 27 C14.62 27 19.24 27 24 27 C24 31.95 24 36.9 24 42 C18.72 42 13.44 42 8 42 C8.4216124 51.80248819 9.05418473 60.98774817 15.3125 68.9375 C19.6505976 72.26673769 23.62360237 74.65590059 29 76 C29 83.59 29 91.18 29 99 C19.2420315 99 11.45999911 95.35531917 4 89 C-6.579536 76.93891163 -9.39488183 62.60893338 -9.3125 47 C-9.30831055 45.9078418 -9.30412109 44.81568359 -9.29980469 43.69042969 C-9.10888683 29.83466798 -7.9121328 11.8681992 0 0 Z " fill="#050505" transform="translate(367,192)"/>
<path d="M0 0 C5.14856165 3.26268401 9.88335465 8.43508954 11.3125 14.4375 C12.15964899 21.18821852 10.96369197 26.67817934 7.3125 32.4375 C1.65200875 39.35929636 -7.13819449 41.96541865 -15.6875 43.4375 C-17.50487371 43.52644709 -19.32498353 43.56810182 -21.14453125 43.5703125 C-22.17513672 43.57160156 -23.20574219 43.57289063 -24.26757812 43.57421875 C-25.33427734 43.57035156 -26.40097656 43.56648438 -27.5 43.5625 C-28.55509766 43.56636719 -29.61019531 43.57023437 -30.69726562 43.57421875 C-31.73173828 43.57292969 -32.76621094 43.57164062 -33.83203125 43.5703125 C-34.76378174 43.56918457 -35.69553223 43.56805664 -36.65551758 43.56689453 C-40.34870339 43.40928212 -44.01949773 42.89600028 -47.6875 42.4375 C-47.6875 36.4975 -47.6875 30.5575 -47.6875 24.4375 C-45.7075 24.7675 -43.7275 25.0975 -41.6875 25.4375 C-41.64625 24.15875 -41.605 22.88 -41.5625 21.5625 C-40.78445617 14.79458446 -37.61939378 9.21478219 -32.6875 4.54296875 C-23.95162086 -2.25711899 -10.46351205 -4.74318737 0 0 Z " fill="#030303" transform="translate(276.6875,203.5625)"/>
<path d="M0 0 C4.75105058 4.19611229 6.69134629 7.66653993 7.2734375 13.953125 C7.46781181 20.26281426 7.48332892 25.17723596 3.61328125 30.35546875 C-2.92155204 37.01688477 -12.73343029 40.72668845 -21.96679688 41.12939453 C-23.03994141 41.13052246 -24.11308594 41.13165039 -25.21875 41.1328125 C-26.39824219 41.13410156 -27.57773438 41.13539063 -28.79296875 41.13671875 C-30.01628906 41.13285156 -31.23960937 41.12898438 -32.5 41.125 C-34.33498047 41.13080078 -34.33498047 41.13080078 -36.20703125 41.13671875 C-37.38652344 41.13542969 -38.56601563 41.13414062 -39.78125 41.1328125 C-40.85439453 41.13168457 -41.92753906 41.13055664 -43.03320312 41.12939453 C-46 41 -46 41 -51 40 C-51 34.06 -51 28.12 -51 22 C-49.02 22.33 -47.04 22.66 -45 23 C-45.103125 22.05125 -45.20625 21.1025 -45.3125 20.125 C-45.27480709 13.91823452 -42.19467639 8.45638466 -38.1328125 3.91015625 C-27.7552165 -5.63965485 -12.33338879 -7.89244842 0 0 Z " fill="#030303" transform="translate(161,206)"/>
<path d="M0 0 C15.1952845 -0.11964791 15.1952845 -0.11964791 19.3359375 2.44921875 C20.9375 4.25 20.9375 4.25 22.39453125 6.1484375 C26.5275741 10.91501247 33.02647749 12.8052955 39 14 C39 20.6 39 27.2 39 34 C27.07009842 33.65420575 18.80129809 28.53332252 10.23046875 20.42578125 C4.53532683 14.23194039 1.84701185 8.08067683 0 0 Z " fill="#060605" transform="translate(236,249)"/>
<path d="M0 0 C15.1952845 -0.11964791 15.1952845 -0.11964791 19.3359375 2.44921875 C20.9375 4.25 20.9375 4.25 22.390625 6.1484375 C26.23627866 10.57280604 32.45658727 12.61414682 38 14 C38 20.6 38 27.2 38 34 C25.24893379 32.58321487 17.78033716 28.3111002 9 19 C4.75968217 13.66166302 0 7.02850859 0 0 Z " fill="#030303" transform="translate(117,249)"/>
<path d="M0 0 C2.77474137 1.37198963 3.87056754 2.55894328 6 5 C6.125 8.625 6.125 8.625 5 12 C1.77909686 15.33196877 -1.49286636 15.95119386 -6.015625 16.09765625 C-7.08296875 16.08605469 -8.1503125 16.07445312 -9.25 16.0625 C-10.32765625 16.05347656 -11.4053125 16.04445312 -12.515625 16.03515625 C-13.33546875 16.02355469 -14.1553125 16.01195312 -15 16 C-14.78414812 9.84822149 -13.65886817 6.86300523 -9.47265625 2.34765625 C-6.46119658 -0.4081888 -3.98178876 -0.45943716 0 0 Z " fill="#ECEAE6" transform="translate(265,216)"/>
<path d="M0 0 C1.5625 1.875 1.5625 1.875 2.0625 5.3125 C1.5625 8.875 1.5625 8.875 -0.25 11.25 C-4.14232746 14.14144326 -7.41871062 13.98409692 -12.125 13.9375 C-13.89423828 13.92396484 -13.89423828 13.92396484 -15.69921875 13.91015625 C-16.60285156 13.89855469 -17.50648438 13.88695312 -18.4375 13.875 C-18.1848789 8.07734568 -17.86931255 4.05356612 -13.4375 -0.125 C-9.22719856 -3.31902179 -4.54123695 -2.09595552 0 0 Z " fill="#EDEBE7" transform="translate(149.4375,218.125)"/>
<path d="M0 0 C4.92127034 -0.16682272 8.50343896 -0.24828052 13 2 C13.33 1.34 13.66 0.68 14 0 C13.67 1.98 13.34 3.96 13 6 C11.68 6 10.36 6 9 6 C8.34 5.34 7.68 4.68 7 4 C6.34 4.66 5.68 5.32 5 6 C2.375 5.625 2.375 5.625 0 5 C0 3.35 0 1.7 0 0 Z " fill="#626160" transform="translate(327,186)"/>
<path d="M0 0 C1.27230469 0.00902344 2.54460937 0.01804688 3.85546875 0.02734375 C5.31919922 0.04474609 5.31919922 0.04474609 6.8125 0.0625 C7.1425 1.0525 7.4725 2.0425 7.8125 3.0625 C1.8725 3.0625 -4.0675 3.0625 -10.1875 3.0625 C-10.1875 2.4025 -10.1875 1.7425 -10.1875 1.0625 C-6.62704823 -0.12431726 -3.74941663 -0.03439832 0 0 Z " fill="#C3C1BE" transform="translate(245.1875,246.9375)"/>
<path d="M0 0 C0.33 0.99 0.66 1.98 1 3 C2.65 3.33 4.3 3.66 6 4 C5.67 5.65 5.34 7.3 5 9 C3.35 9 1.7 9 0 9 C0 6.03 0 3.06 0 0 Z " fill="#535251" transform="translate(289,183)"/>
<path d="M0 0 C0.66 0 1.32 0 2 0 C2 1.65 2 3.3 2 5 C2.66 5 3.32 5 4 5 C4 3.35 4 1.7 4 0 C4.66 0 5.32 0 6 0 C6.04241723 2.33294775 6.04092937 4.66702567 6 7 C5 8 5 8 2.4375 8.0625 C1.633125 8.041875 0.82875 8.02125 0 8 C0 5.33333333 0 2.66666667 0 0 Z " fill="#3C3B3A" transform="translate(318,186)"/>
<path d="M0 0 C0.99 1.32 1.98 2.64 3 4 C3.66 2.68 4.32 1.36 5 0 C5 2.64 5 5.28 5 8 C3.35 8 1.7 8 0 8 C0 5.36 0 2.72 0 0 Z " fill="#1B1B1B" transform="translate(296,186)"/>
<path d="M0 0 C1 3 1 3 0 6 C-1.32 6 -2.64 6 -4 6 C-4.66 5.34 -5.32 4.68 -6 4 C-5.67 3.01 -5.34 2.02 -5 1 C-3.35 1.33 -1.7 1.66 0 2 C0 1.34 0 0.68 0 0 Z " fill="#292928" transform="translate(340,186)"/>
</svg>
