<?xml version="1.0" standalone="no"?>
<!DOCTYPE svg PUBLIC "-//W3C//DTD SVG 20010904//EN"
 "http://www.w3.org/TR/2001/REC-SVG-20010904/DTD/svg10.dtd">
<svg version="1.0" xmlns="http://www.w3.org/2000/svg"
 width="512.000000pt" height="512.000000pt" viewBox="0 0 512.000000 512.000000"
 preserveAspectRatio="xMidYMid meet">

<g transform="translate(0.000000,512.000000) scale(0.100000,-0.100000)"
fill="white" stroke="none">
<path d="M434 5105 c-204 -44 -370 -209 -419 -416 -13 -56 -15 -317 -15 -2129
0 -1812 2 -2073 15 -2129 50 -209 216 -373 424 -417 100 -21 4144 -21 4244 1
208 44 389 230 426 439 15 83 15 4129 0 4212 -37 209 -218 395 -426 439 -97
21 -4155 21 -4249 0z m3398 -1115 c63 -23 128 -85 157 -150 20 -44 21 -60 21
-1280 l0 -1235 -24 -50 c-12 -27 -43 -69 -68 -91 -86 -79 7 -75 -1374 -72
l-1229 3 -55 31 c-66 37 -114 97 -135 166 -22 77 -23 2418 0 2495 27 91 90
156 184 189 29 10 284 13 1253 14 1191 0 1218 0 1270 -20z"/>
<path d="M3232 2645 c-129 -29 -234 -98 -287 -189 -52 -89 -53 -231 -4 -333
33 -69 120 -140 239 -195 195 -91 232 -112 261 -147 36 -44 40 -105 9 -143
-75 -96 -328 -82 -490 27 l-50 34 0 -143 0 -143 68 -22 c95 -31 171 -41 297
-41 297 1 467 109 496 317 18 127 -16 231 -103 314 -48 46 -91 70 -321 179
-38 17 -84 47 -103 66 -28 29 -34 42 -34 78 0 86 74 131 215 130 86 0 204 -30
263 -66 l32 -20 0 135 0 135 -67 17 c-92 24 -334 30 -421 10z"/>
<path d="M1780 2515 l0 -115 180 0 180 0 2 -517 3 -518 143 -3 142 -3 0 521 0
520 185 0 185 0 0 115 0 115 -510 0 -510 0 0 -115z"/>
</g>
</svg>
